/* XPM */
static char *_1a3a420ebaf46f5a3ee4e87ee1b4f56dYruEvcplhzt5HVW[] = {
/* columns rows colors chars-per-pixel */
"64 64 256 2 ",
"   c #2B1A09",
".  c #311E0E",
"X  c #291B13",
"o  c #311E15",
"O  c #37250B",
"+  c #2C2316",
"@  c #332414",
"#  c #3B2513",
"$  c #3C2A13",
"%  c #3A241B",
"&  c #3D2B1B",
"*  c #332719",
"=  c #3D331B",
"-  c #3A300C",
";  c #311D28",
":  c #3E2B22",
">  c #382624",
",  c #3E3425",
"<  c #2E2828",
"1  c #1A1006",
"2  c #442C0A",
"3  c #46340B",
"4  c #583B0D",
"5  c #432D14",
"6  c #422D1C",
"7  c #4A2D18",
"8  c #433215",
"9  c #4B3414",
"0  c #44321C",
"q  c #4B341C",
"w  c #4C3A1B",
"e  c #4A3A17",
"r  c #533B1C",
"t  c #563A17",
"y  c #5D2D09",
"u  c #643916",
"i  c #422E21",
"p  c #472D27",
"a  c #443222",
"s  c #4A3523",
"d  c #4C3A24",
"f  c #45332B",
"g  c #4B332B",
"h  c #4C3B2B",
"j  c #453928",
"k  c #533C24",
"l  c #523D2B",
"z  c #563A25",
"x  c #4A3A34",
"c  c #52332E",
"v  c #643B27",
"b  c #4F1D0E",
"n  c #5B441C",
"m  c #594618",
"M  c #594C13",
"N  c #68460B",
"B  c #634B1B",
"V  c #654818",
"C  c #73481A",
"Z  c #65541C",
"A  c #6B541C",
"S  c #6C5B1C",
"D  c #685816",
"F  c #765819",
"G  c #6F520B",
"H  c #75631B",
"J  c #726717",
"K  c #4D4228",
"L  c #554224",
"P  c #5C4323",
"I  c #54422B",
"U  c #5B442C",
"Y  c #5D4A27",
"T  c #5B5525",
"R  c #544332",
"E  c #5B4935",
"W  c #4E4B33",
"Q  c #664927",
"!  c #744C25",
"~  c #6D5B22",
"^  c #695527",
"/  c #755927",
"(  c #654A35",
")  c #6A5636",
"_  c #755B36",
"`  c #734E34",
"'  c #6B6422",
"]  c #786527",
"[  c #796539",
"{  c #776F2F",
"}  c #594B47",
"|  c #675746",
" . c #705D4D",
".. c #776644",
"X. c #6D6751",
"o. c #76716E",
"O. c #865B1A",
"+. c #865412",
"@. c #876717",
"#. c #95691B",
"$. c #97781A",
"%. c #8C7218",
"&. c #AB7719",
"*. c #845C2A",
"=. c #845226",
"-. c #856926",
";. c #976825",
":. c #8C7227",
">. c #987628",
",. c #876937",
"<. c #946937",
"1. c #85743A",
"2. c #997834",
"3. c #A87A27",
"4. c #A37A37",
"5. c #A36926",
"6. c #856B44",
"7. c #8B7546",
"8. c #977B48",
"9. c #907250",
"0. c #897A67",
"q. c #AE9316",
"w. c #BCAB1A",
"e. c #98842E",
"r. c #A98928",
"t. c #AC9527",
"y. c #B69727",
"u. c #A78C34",
"i. c #BB9C35",
"p. c #B08F33",
"a. c #B6A32A",
"s. c #958B1C",
"d. c #C19D1C",
"f. c #D8B91C",
"g. c #C9AC1C",
"h. c #E3BA15",
"j. c #C8952A",
"k. c #C7A828",
"l. c #D5A926",
"z. c #CDB629",
"x. c #D8B828",
"c. c #C6A834",
"v. c #D9A938",
"b. c #D6B936",
"n. c #C7B534",
"m. c #E7BA26",
"M. c #F1B737",
"N. c #E99E38",
"B. c #DAC51B",
"V. c #DAC70E",
"C. c #E9CB0A",
"Z. c #F5C908",
"A. c #FCDB02",
"S. c #F8D706",
"D. c #E8C819",
"F. c #F6CC17",
"G. c #EBD717",
"H. c #F8D617",
"J. c #EBD507",
"K. c #FDEC02",
"L. c #FAE508",
"P. c #FEF703",
"I. c #FCE818",
"U. c #FFF514",
"Y. c #EDE105",
"T. c #DBC328",
"R. c #D9C233",
"E. c #E8C722",
"W. c #F4CA25",
"Q. c #F2D327",
"!. c #FEE927",
"~. c #9A844C",
"^. c #9A8656",
"/. c #948F51",
"(. c #A5874A",
"). c #A48B56",
"_. c #AA9457",
"`. c #B49A5A",
"'. c #AF9447",
"]. c #BCA45C",
"[. c #938B76",
"{. c #AC9663",
"}. c #B59C67",
"|. c #A58C79",
" X c #A99170",
".X c #BAA364",
"XX c #BBA875",
"oX c #CDAE4C",
"OX c #E7B442",
"+X c #C4AB65",
"@X c #C6AB68",
"#X c #CCB36C",
"$X c #C8B16A",
"%X c #D2B76B",
"&X c #CBB475",
"*X c #D6BB77",
"=X c #CCA76C",
"-X c #D09B5E",
";X c #DBC27B",
":X c #DDC376",
">X c #E3C87B",
",X c #F1CC75",
"<X c #999086",
"1X c #A28D84",
"2X c #A99686",
"3X c #B69A89",
"4X c #A89B94",
"5X c #B59E95",
"6X c #BBA38B",
"7X c #ABA399",
"8X c #B6A697",
"9X c #B7B391",
"0X c #A7A9A9",
"qX c #B4AAA7",
"wX c #AAB6AC",
"eX c #B7B7AC",
"rX c #ABB4B4",
"tX c #AEB5BA",
"yX c #ACB9B7",
"uX c #B3BABC",
"iX c #B6B7B6",
"pX c #ACADB6",
"aX c #9DA499",
"sX c #CBAC8D",
"dX c #C5A78B",
"fX c #D4B68B",
"gX c #C7A993",
"hX c #D9B894",
"jX c #CCB591",
"kX c #C8BCAA",
"lX c #C7BBB6",
"zX c #D1BAA8",
"xX c #D7B491",
"cX c #BBC1BD",
"vX c #D8C49B",
"bX c #DBC584",
"nX c #E5CA85",
"mX c #EBD387",
"MX c #F4DA87",
"NX c #E3C498",
"BX c #EFD994",
"VX c #F8E597",
"CX c #F4E792",
"ZX c #D6C3A6",
"AX c #C7C3B6",
"SX c #D5C3B5",
"DX c #C8C2AB",
"FX c #EBCBA0",
"GX c #F9EAA5",
"HX c #FEF4A7",
"JX c #FFF7B3",
"KX c #B4B8C5",
"LX c #ADB8C6",
"PX c #B9C2C9",
"IX c #C8C3C3",
"UX c #C1BAC2",
/* pixels */
"3X6X6XdXsXsXsXfXfXfXfXhXhXhXhXhXhXNXZXzXZXkXIXkXAXDXkXlXiXeXeXiXeX8XKX7X;.=.Z n a r q p s l 6.^.4X2X) n C r U l s 8 w q q s i 0 ",
"2X3X3X6XdXsXsXsXsXfXhXhXhXhXhXhXhXNXZXSXZXkXlXAXAXkXkXlXlXeXeXiX7X[.uX9X-.u 0 5 8 m B 9 r l U _ |.[...Y Q w t 7 a 8 q 8 i i 6 0 ",
"2X3X3X3XdXdXsXsXsXjXfXhXhXNXNXNXNXNXZXzXZXkXkXDXAXDXSXkXeXeXwXiX[.| o.X.z p j 6 f w r 9 t ( B F <.[.X.8 d I ` Q s 0 d q i a 6 0 ",
"2X3X3X3XgXdXdXdXsXsXfXfXhXhXNXNXNXNXZXzXkXSXSXAXAXkXDXlXiXuXiX0X[.9 0 d z 6 $ g i 9 w z w ( ` ! <.[.0.I f x ! t a a s 6 & & & 6 ",
"1X2X3X6XdXdXdXdXsXsXsXfXfXhXNXNXFXvXvXSXlXkXAXlXAXeXeXAXuXpXKX0X} 9 6 a g s - q a r r k 9 z ` <.<.o. .L f j t = 8 0 s a 6 & & a ",
"|.2X5X6X6X6X3X6XdXsXjXjXfXhXhXhXNXvXvXkXlXSXDXlXiXiXiXiXtXLXKX<Xf a d m r 6 $ f f k L 9 r ^ F p.(.o.} w s x z K q q h s a 0 6 a ",
"4X4X5X8X8X3X3X3X3X6XgXgXsXjXsXsXhXhXvXkXIXzX9XkXiXuXuXrXPXPXeXX.H t.n.B.z.p.-.% - 3 r w Q ` ! ;.;.) g - t h v V r s s a 6 0 6 i ",
"7X7X7X7X8X5X3X2X|.2X3X3XdXgXgXgXsXjXjXSXlX^.1.jXuXLXtXwXuXpX7X/.b.T.B.D.W.H.H.q.i q a s k Q 8.5.&.! g e B 8 Q O.) U h a a d s d ",
"0X0X0XqX5X2X2X1X1X1X|.|.3X3XgXdXsXjXvXkXzX/ F &XKXyXyXeXuXaXa.z.z.x.D.Z.F.H.A.L.q.6 a 8 9 p Q V ! ;.f , h a u F h d d s d d d q ",
"0X0X0X0X4X2X2X1X1X1X1X2X3X3XdXgXgXgXkXlXXXG F oXuXwXtXuXuX/.n.k.b.x.D.Z.Z.S.A.S.I.$.% f g k 2 w O.*.p L 0 x c q 0 a s 0 q 0 0 6 ",
"0X0XrX0X4X4X1X1X1X<X1X1X3X3X6XgXgXjXeXlX`.J F n.wXKXLXLXaXr.c.z.z.x.E.F.S.A.A.A.K.V.B f f L 0 E S ! U ^ 7 0 5 0 6 a s s s 0 s q ",
"wX0XrX0X0X4X1X|.|.1X1X1X2X3X6X8XqX8XqXeX_.-.,.a.9XtXyXyX/.n.x.B.f.D.D.F.S.A.S.S.A.P.q.9 g I f h z z w t p a 8 f 0 a a 6 6 6 0 s ",
"tXrXrX0X7X1X X{. X|.|.1X2X5X8X8X7XeXqXeX9X..w %.oX8XKX7Xs.i.i.y.k.E.E.F.A.A.S.L.S.K.J.4 k L g r ! c s $ : f : > a 6 & & & 6 0 q ",
"tXrXrX0X7X[.).(.).).^.|.1X5X7X4X4XqXeXeXUXIX4X) >.jXiX..4 4 n N 3.c.l.D.S.A.S.A.A.A.K./ 6 w s V @.6 p d - 8 & q a a 6 i a a s q ",
"rXrXwX0X7X9.,.;.4.4.<.).3X5XqX7XqXqXeXiXtXuXcX0X^ s.e.3 l M S [ 4.i.d.x.m.W.H.Z.A.S.L.s.% d z V v 5 V f 0 q a q 0 6 & i a a 0 8 ",
"rXyXwXwX4X) ! G 5.>.O.).5XqXeX8XqXlXeXKXKXwXyXKX/.~ ] L M Q A ] $.u.t.y.$.y.D.H.S.S.L.w.> : d r p J a.s p 7 0 6 0 0 6 a a a q q ",
"|.6XeX0X^.Q s ^ 3.>.*.<.XXeXwXeXeXtXrXeXyXtXrXiX0X) D M S N r n H p.r.3./ ^ :.j.F.S.Y.w.7 0 f $ m $.3.;.> 3 q p 0 0 a 6 s a s 0 ",
"] >.^.aXB N m M ;.-.-.#.8.AXrXiXrXiXiXwXtXuXwXuXpX{ M Q 2.i.{ e B >.y.$.-.Z N C r.G.L.R.U = : 5 :.>.<.@.s 8 i 6 6 0 6 0 s s 0 0 ",
"G #.[ [.P t n n ;.,.-.%.9.KXyXtXtXyXeXrXLXuXwXKX2XD n ^ 4 F s.m B 2.p.:.Z M B / A y.A.C.Q 0 w / %.>.>.$.7 h f k 6 0 6 s a s 6 0 ",
"u O.r o.x t w k r.8.! F |.LXwXiXKXyXwXtXtXtXtXwXu.n.G ` t ( ~.t G p.y.u.M m Z B ,.u.C.K.%.M e.F O.y.q.r.i i h O 0 a a a a a 6 0 ",
"t A 9 o.| 9 t ( r.7.r 4 4XKXwXiXKXwXrXKXwXtXKX[.t.B.d.#.` ,.'.*.y.x.f.y.F ] u.r.-.t.V.I.OXp.e.B V %.oX-.% 0 - l a s s 6 a a a 6 ",
"I t 3 | | 3 t ) H ! v t <XPXwXKXtXiXtXuXwXiXeX/.>.k.E.f.p.y.q.OXx.h.E.c.C v G t.i.t.x.J.k.u.V d s t ~ t % 0 8 i a s h 0 d a s 6 ",
"} a 2 ) w r z I w V C / 4XKXwXKXiXtXyXtXtXeX X{ @.y.k.x.n.r.i.g.m.h.F.D.#.v c }.t.i.f.K.b.Z 9 f g g 6 s i s 0 f 6 a s h l s i i ",
"j g t B m P 9 w x F G _ eXKXyXrXuXpXwXrXKX7X1.] ] >.p.i.-.-.q.c.l.x.F.C.x.4.*.oX'.g.F.K.T.3 f g 0 q m w f i 6 : & 6 a R I s % i ",
"& 0 & 6 5 n L X.W ` C 6.KXyXwXtXyXuXwXtX<X0.{ ] S G -.] Z ^ :.y.c.l.m.D.E.b.d.d.h.J.L.P.V.q g d s w k 8 6 a i i a % 6 h h h a : ",
"6 $ 0 a O r I X.| Q 5 0.iXwXuXLXyXrXyXtXo.l { H ^ B B m e P :.y.d.l.l.h.D.x.W.C.H.I.A.P.G.w 6 h d q q 5 & a i 6 * * s a a h h 6 ",
"# 8 $ & # 8 0 }  .r w <XIXwXtXtXeXwXeXiX| O { J B ^ Z Z m 9 / >.p.y.v.v.x.d.d.W.H.H.A.K.G.n s R h s 0 & 6 a i 6 : & s h d d s a ",
"6 w $ @ : 6 @ x I 7 -.{.AXiXeXeXeXeX8X6X_ V -.H D S Z S ^ 9 n F +.r.:.B :.$.r.x.D.F.A.K.V.Y R f h s a 6 i a 6 6 a & s l l d 0 a ",
"k 8 5 i : & $ : $ t -.:. X8XeXiX8X6X X^.,.-.-.S F / / ~ ^ Y m M ! V 2 9 :.2.@.y.l.D.A.K.D. . .E h s a 6 6 i 6 a : i s 0 s l a 0 ",
"d w 9 i & $ $ 5 t B V C 3.}.lXcX X9.6.] -.%.-.S F B ~ D G Z r k t @.b.m.Z.m.#.Z r.l.Z.L.B.R x d h 0 0 & & i a d j s a 6 s d a s ",
"w r 9 6 i 8 9 t / Z m C &.).kXeX8.] ) 4 B H -.] A 2 n ] e.p.>.F y.h.H.Z.Z.F.v.C F t.m.L.f.j x l d 8 8 6 6 i a h R j a a s s , h ",
"k 3 9 s a k ^ V F ^ / y -. XkX8X:.,.E 2 w ] ] ] ~ # : r @.x.Q.J.F.F.H.J.S.Z.m.y.B >.l.G.g.s x g d 8 8 a a f a d j h j 6 s h s j ",
"q U t a r 7 / m k ~ F V !  XvX9X) P L ( 0 ^ ] H A = - u u V u.f.E.E.!.H.S.H.W.M.r.*.f.G.k.g h x k q q q z k I h h h j a f h h f ",
"0 r t 0 j & r 9 s 2 B 4 u }.ZXkX( 9 ( & 1 ^ { ~ / - K Y / C u N G +.&.q.c.y.&.l.B.r.x.G.q.! n x s a s 0 k d d h h h j , % % i h ",
"K t t s x @ $ s = d 9 V F 6. XSX| L j 1 K { ' ] -.O.2 ( / O.#.C t u b y p p N h.S.x.E.L.q.Q P x x , a 0 q d d R R R j a & & a h ",
"3 A v q h B t 6 w 5 n F F u q 0...d * , ..{ H ] S r.5.<.8.(.3.#.2.C <.C Q 7 r.H.Z.F.J.K.k.p ( P x h k ( q h s a R E R h s g s a ",
"O.2.r O t >.*.L 2 V ,.:.F ( 5 P Q & * T ' S { S ~ -.j.&.;.-X-X-X,Xp.oX(.4.+.m.S.H.S.J.L.I.! ` ~ 7 r _ 9.U * f j s I E R d a 0 a ",
";.;.4 9 ! 3.O.t V G @.2.[ z q Y r i & T J ] ] H -.Z $.v.&.j.-X,X-X:X`.`.+.N.W.C.H.S.A.L.P.s.Q ,.` *.8.<.) I E a d h I I h 6 & s ",
"*.>.F w ! 4.#.^ B e.mX&X) z s 8 6 @ = ~ S ~ ~ ' H ] ' @.j.N.j.M.-XoXOXv.v.h.E.E.J.C.S.L.P.w.z -._ *.2.*.^ w 0 U U I I R l s a a ",
"Q F @.w r V G _ fXJXGXXX..q 5 g i $ - T ~ ~ ] ' S ] ^ / F 5.j.N.M.M.M.OXm.f.D.D.A.E.D.G.P.f.z Q n ,.4.F ,.XX..Q l E E E h s a a ",
"n 9 Q w 5 # 9.BXGXVXVXXX( k 9 q q * = T D ~ ~ ' S H ] ~ ^ ^ G :.y.c.c.c.x.E.D.Q.G.B.z.G.P.V.V d U ! <._ 7.JXGXnX^.^ L E E R a l ",
"k n P k q [ BXVXVXVXVXXXU ) Q ( E * = T S ~ ~ ' ~ ~ S D S ~ S A @.2.u.t.g.E.E.B.B.b.B.K.P.f.` 0 q ^ C ,./ GXGXJXJXbX[ E R R a 6 ",
"s w q 6 Y fXVXBXmXmXVX&XY ) B Q q @ K T ~ A Z ' S ~ / / S A / Z ~ 1.u.a.x.T.T.B.z.z.Y.K.P.z.E K d Q *.*.8.JXHXGXHXHXGX..I E d 0 ",
"a 8 5 5 {.BX%XnXmXmXBXfXQ Q t z U 0 E T ^ ~ S S D S ^ / A G -.:.e.u.y.k.T.D.T.b.c.V.P.K.P.a.% + & n 6.V (.VXHXGXCXCXHXJX[ E R a ",
"0 s O 6.nX;X;X>XnXmXmXfXP P n z k $ I Y T Z Z Z ~ ] ~ >.t.y.i.oXg.x.x.x.D.D.T.c.T.U.K.L.I.'.I , & P _ / 8.VXCXHXVXCXMXHXnX_ E f ",
"d 5 ^ bX%X*XnX>XnXnXnXXXl k r s 0 $ I ) ) Z S ~ Z ~ S $.c.x.x.f.D.D.F.H.E.x.x.E.L.U.L.K.E.{.9 X 0 Y r 6.8.VXVXVXVXCX,XMXJXXXI E ",
"( ^ &XmX%XbXbX;XnXbXmX{.z k w 6 I 5 5 E ( Z D A S S S F :.r.w.f.x.D.F.F.x.z.B.L.U.K.I.L.oX X8 a 7 r w k / >XVXVXCXVXMXMXVXJXXXY ",
"( XXmX>X*X*X*X*X*X*XmX,.# U L 6 s 9 q | ( Z ~ ^ ^ Z ] ] / ] :.u.k.x.T.z.g.B.I.I.I.K.K.J.%X7.6 I ( w U 5 n ;XMXVXVXmX>X>XVXHXGX).",
"}.;X&X;X*X#X@X+X&X*XfX_ l 9 9 6 0 g $ ) | ( Z ^ S A A H -.] / -.e.i.i.k.C.A.I.!.I.U.L.R.hXQ r $ q B r Q 2 .XMXMXMXmX:XmXVXVXHXGX",
"GXnX+X#X#X+X(..X@X#X.X5 & 6 I h @ 6 # ( Y ) ^ D ^ A B M ~ ] -.-.@.>.d.C.S.I.I.!.I.I.Q.%X#X_ O ^ U _ Q _ P ).MX>XmX:X%X>XBXVXVXVX",
"GXmX$X+X+X+X_.}.`.$X^.O f a s * f = $ 6 [ [ ^ J ~ ~ Z m t 4 N F #.k.C.A.A.L.L.!.U.K.c.nX8.B r % r Q ) ) s 6.MXnX>X%X#X:XnXmXmXMX",
";XmX#X].`..X}.~._..X) @ : : .   X = 0 U [ }.$Xu.q.a.a.y.r.>.3.y.D.H.S.A.L.H.I.U.L.z.%XnX1.p 3 f 5 5 Q k   P :XnX;X+X$X%X*X>X>XmX",
"#X:X+X]._._._.8.(.^.k $ f a s Q a X a 5 9 }.+X].b.T.D.E.Q.H.H.W.F.Z.H.S.A.H.!.I.x.=XnX$XQ k O K ( Q w I : 5 #XnX&X.X+X@X#X*X;XmX",
"+X+X+X+X_.).~.^.8.9.z @ & . 0 P E g   O s _ @X@X+XoXg.C.A.L.A.S.W.H.Z.S.L.L.G.z.$X*XnX8.o 3 h   ( ] 7 6 f 0 ).;X@X.X.X.X+X$X*XmX",
"#X+X+X@X_.~.8.7.,._ s $ & o h z 8 I 0 I # Y _.`..X`.oXT.C.J.S.A.J.D.C.J.H.R.oX%X;X>X*Xm - ; o = z -.P i & a 7.*X.X}.`.{..X.X*X;X",
"*X].'.`._.~.~.,.] Y 0 d = > >   # w l # w L [ .X/._.}.}.oXb.W.x.b.z.b.oXoX%X;XbX*X>X8.3 8 x X T ( :.Q x $ . 6.+X_.).~._.`..X&X*X",
"$X+X(._.).(.7.[ Q Y & @   $ 6 8 * * $   . # ( _ ^.)._.~.{.}.}..X+X%X+X$X*X*X;X;XmX`.t Y 6 a I d $ I w a - X ) .X_.^.~.~.)..X.X].",
"$X.X_.(.(.8.6._ Q r : 0 f q l E x d 0 l x @ a e ^ ^.).~.{.)._.`.`..X@X].*X#X*X*X^.t ( 5 *   , . & . & X @ > l `.~.~.8.~.^.)._.`.",
".X`._.(.(.8.1.^ P L i $ o   % d . & 0 R f X * , U _ ^._._.).).).{.}.].+X$X%X*X(.d . & a h * @ j a ) R E & h I _.~.7.6.7.8.~.^._.",
"`._.).~.8.7.[ Y r r o & f l & $ 6 & a @ X +   + 6 5 6.).).)._.{.}..X+X+X*X&X[ Y f . .    ., * * O L & w @   s (.~.7.[ ..6.7.~.).",
"_._.).~.8.7.^ r k L % 0 % 0 # * + @ = @ @ a a R h h 8 _ {._.).)._.`.@X#X@X..* o @ @ & .   a & f > d f O X x : 7.~.1.[ [ [ 6.7.~.",
").).~.~.7.6.Y w z 5 o 0 h q & # * +   j h 0 d d * , . 2 7._.).{..X@X@XfX[   , ; a d d 0 O @ : X X @ & & @ x o ~.8.1.[ ) _ [ [ 6.",
"~.8.7.7.7._ r s z $ @ 8 % O i a @ @ + K 0 . & & + X % # _ }.XX{.^.{.).8.L $ X <   & a h E . @ X + d I * 8 o 0 ~.7.[ ) ) ) ) _ [ ",
"8.7.7.,.1.Q 5 s k 5 @ d a k s * a @ o & @ s h > * : x a 5 ^ 7.n O O 9 r k d @ 1 * + X X h , X + X @ . > K ; * [ 6._ ( E E Y ( _ "
};
