/* XPM */
static char *a12c227f18ea43dfb9dc0a2a2ecc752dhoouvifz0O0OngB6[] = {
/* columns rows colors chars-per-pixel */
"64 64 256 2 ",
"   c #0B0704",
".  c #170A05",
"X  c #1A1608",
"o  c #170A16",
"O  c #1A1615",
"+  c #0F0F07",
"@  c #271807",
"#  c #341B07",
"$  c #231413",
"%  c #241B13",
"&  c #241B1C",
"*  c #2B1C1B",
"=  c #281816",
"-  c #2D1512",
";  c #2A2408",
":  c #382806",
">  c #3B3705",
",  c #232214",
"<  c #2B2314",
"1  c #24231B",
"2  c #2B271B",
"3  c #352918",
"4  c #3C3517",
"5  c #1C1925",
"6  c #060F2A",
"7  c #271C25",
"8  c #321D24",
"9  c #2B1A35",
"0  c #2B2526",
"q  c #362A26",
"w  c #393428",
"e  c #362B32",
"r  c #3A3434",
"t  c #2A2A34",
"y  c #1C2122",
"u  c #452B05",
"i  c #473704",
"p  c #523C09",
"a  c #462C18",
"s  c #463717",
"d  c #53391A",
"f  c #482D26",
"g  c #483828",
"h  c #553B29",
"j  c #493A35",
"k  c #4E3532",
"l  c #603F30",
"z  c #494409",
"x  c #564706",
"c  c #5B5507",
"v  c #4B4518",
"b  c #554918",
"n  c #5B541C",
"m  c #5A5617",
"M  c #634A05",
"N  c #655906",
"B  c #645C1C",
"V  c #655817",
"C  c #705011",
"Z  c #776809",
"A  c #76730B",
"S  c #696619",
"D  c #756A17",
"F  c #797719",
"G  c #6B690B",
"H  c #4B4527",
"J  c #574727",
"K  c #5B5627",
"L  c #584736",
"P  c #524E37",
"I  c #655924",
"U  c #654938",
"Y  c #695535",
"T  c #755A39",
"R  c #725528",
"E  c #5A6229",
"W  c #6A6527",
"Q  c #756926",
"!  c #747424",
"~  c #797628",
"^  c #686437",
"/  c #786A38",
"(  c #787836",
")  c #6D712D",
"_  c #5D601D",
"`  c #1C3050",
"'  c #2D3551",
"]  c #2D3A66",
"[  c #433A43",
"{  c #37496C",
"}  c #3B4455",
"|  c #534A4C",
" . c #675745",
".. c #755B45",
"X. c #6B5A55",
"o. c #756E4D",
"O. c #4C506C",
"+. c #53647B",
"@. c #75736B",
"#. c #665D60",
"$. c #3F4613",
"%. c #847A19",
"&. c #89730C",
"*. c #845D33",
"=. c #896426",
"-. c #867925",
";. c #866638",
":. c #867839",
">. c #947329",
",. c #906923",
"<. c #867647",
"1. c #8E7150",
"2. c #89786B",
"3. c #A47A45",
"4. c #7E8119",
"5. c #7F8439",
"6. c #7A8248",
"7. c #998607",
"8. c #86851B",
"9. c #988718",
"0. c #939015",
"q. c #A79719",
"w. c #A9940E",
"e. c #B9A61A",
"r. c #B7AD17",
"t. c #8A8727",
"y. c #978A27",
"u. c #969625",
"i. c #8A8736",
"p. c #978635",
"a. c #969639",
"s. c #8F9127",
"d. c #A79727",
"f. c #A68936",
"g. c #A79836",
"h. c #B1962C",
"j. c #9FA139",
"k. c #B9A728",
"l. c #B8A637",
"z. c #B3AB2F",
"x. c #C7B61B",
"c. c #C7B119",
"v. c #C5AA29",
"b. c #CAB829",
"n. c #D3BB27",
"m. c #C6B637",
"M. c #CDB334",
"N. c #D3C81B",
"B. c #E7D81B",
"V. c #E9CE1D",
"C. c #ECE41C",
"Z. c #D8C729",
"A. c #DDD529",
"S. c #CEC438",
"D. c #D8C836",
"F. c #DBD138",
"G. c #CAC328",
"H. c #E3CD26",
"J. c #EBDB2C",
"K. c #E8D628",
"L. c #E3CB38",
"P. c #E8D835",
"I. c #F1DA2D",
"U. c #F0E531",
"Y. c #948B4D",
"T. c #A79649",
"R. c #B69849",
"E. c #A79556",
"W. c #AB8D51",
"Q. c #B8A946",
"!. c #AFAA4D",
"~. c #938E72",
"^. c #B0976C",
"/. c #B3AD70",
"(. c #96A07E",
"). c #C8BA48",
"_. c #C6AC4E",
"`. c #C8AC70",
"'. c #C59D57",
"]. c #BEC274",
"[. c #D6C947",
"{. c #D8C956",
"}. c #D0C94F",
"|. c #E4CC47",
" X c #E8D546",
".X c #EBD851",
"XX c #F4E856",
"oX c #F3E64D",
"OX c #D1C96A",
"+X c #E9DA68",
"@X c #EEE460",
"#X c #4D5985",
"$X c #58688F",
"%X c #697094",
"&X c #6D78A7",
"*X c #827E87",
"=X c #758AAE",
"-X c #7D909E",
";X c #7B96C5",
":X c #8D8B8E",
">X c #A49990",
",X c #B5B08E",
"<X c #B5B2AD",
"1X c #8F9EA7",
"2X c #CAB491",
"3X c #C6B7A8",
"4X c #E5BD82",
"5X c #BBC6A0",
"6X c #D3CC8F",
"7X c #ECD396",
"8X c #F6E698",
"9X c #D0CDB4",
"0X c #EBD6AE",
"qX c #EFE7B3",
"wX c #99ADD2",
"eX c #ACB8CF",
"rX c #A7BDEA",
"tX c #ACBDF3",
"yX c #ABBCFA",
"uX c #AFB9F3",
"iX c #838FC3",
"pX c #A7C4DC",
"aX c #B8C6D8",
"sX c #B2C5C9",
"dX c #ABC3EC",
"fX c #A7C5E7",
"gX c #B3C4EC",
"hX c #B8CAE8",
"jX c #ABC4F2",
"kX c #ABC5F6",
"lX c #B6C8F6",
"zX c #BCD3FA",
"xX c #9FC1E4",
"cX c #CDD2D2",
"vX c #E7DDD3",
"bX c #D9E3D6",
"nX c #F1EBCF",
"mX c #C2CDE7",
"MX c #C9D5E9",
"NX c #D6DAE9",
"BX c #C5CCF8",
"VX c #C8D5F7",
"CX c #D6DAF9",
"ZX c #D2CEF5",
"AX c #DCE4FE",
"SX c #D8E5F8",
"DX c #D3E4EA",
"FX c #E7E9E9",
"GX c #FCFAE8",
"HX c #E6E9FB",
"JX c #EBF3FD",
"KX c #FCFDFD",
"LX c #F4F5F9",
"PX c #F0EEF0",
"IX c #EADFEF",
"UX c #C5BEC6",
/* pixels */
"eXaXmXMXBXBXmXMXmXhXyXyXyXrXdXrXtXtXrXfXpXpXfXfXkXyXyXyXtXfXfXfXkXyXjXdXfXpXfXrXtXtXtXrX$X%XeXaX{ =X+.$X1X` 6 ' wXwXrXjXtXrXrXjX",
"MXMXCXCXCXBXmXMXmXBXlXlXyXtXdXdXgXgXdXfXfXfXfXfXrXtXyXlXlXdXfXfXrXtXdXfXfXfXfXjXrXtXtXBXeXeXmXeX+.=X%X%X1X{ ' =XrXdXjXkXkXjXdXdX",
"SXHXHXAXCXCXMXmXMXVXzXlXyXtXfXhXmXhXhXhXfXfXdXdXgXgXgXgXgXlXkXkXdXdXfXpXpXpXpXfXjXkXtXgXeXsXcXsXO.=X#X%X&X` { wXlXjXdXdXdXjXdXrX",
"HXJXJXHXCXCXCXmXMXBXzXlXyXgXhXMXMXmXhXhXlXjXgXhXaXhXMXVXVXBXlXuXuXrXaXpXpXfXdXdXjXjXrXrXaX<X1X:X#X&X{ &X%X` { wXjXjXrXrXdXdXdXrX",
"SXJXJXAXAXAXAXVXVXBXzXlXlXlXMXAXAXCXVXBXlXgXhXhXmXMXNXNXNXZXZXZXBXBXlXlXlXlXlXjXtXzXlXlXwX-X1XsX%X&X$XiX&X] #XdXkXjXjXjXjXdXgXdX",
"NXSXAXAXSXSXAXVXVXBXmXmXBXBXDXJXJXAXCXVXBXhXhXhXSXHXPXFXvXvXvXvXbXcXcXcXcXmXhXgXlXtXrXlXVXeXsXaX$X&X%XiX&X] $XkXkXkXlXlXlXdXgXhX",
"MXMXCXMXNXNXVXBXVXVXMXNXCXCXSXJXLXHXAXAXCXBXBXVXCXJXKXGXqX7XOXOX}.OX].].5X9XcXcXmXhXgXrXhXeXaXaX$X%X$X&X$X] =XzXkXkXlXlXlXlXgXgX",
"MXVXMXMXNXMXMXmXCXCXCXHXHXHXJXKXKXPXHXHXAXCXCXCXLXGXqX6X}.).S.G.G.G.z.z.!.!.,X<XcXmXmXhXMXeXeX-X%X$X#X$X$X{ ;XzXlXlXlXlXlXlXzXzX",
"VXAXmXmXMXMXMXMXNXmXHXCXHXJXKXKXKXPXKXKXHXKXFXGXqX6X}.[. XF.Z.N.Z.N.G.b.k.z.!.E.(.9XbXeXVXiX#X&X] O.] ] ] ` wXzXlXlXhXgXVXBXjXzX",
"CXVXVXCXVXMXcXcXcXFXZXCXCXKXJXKXLXKXLXFXKXGXnX0XOX{.[.F.F.F.Z.N.Z.N.N.x.r.r.z.j.Y.Y.,XcXMXO.%X&XO.[ ' ] ` 6 $XSXhXhXMXmXBXBXzXzX",
"SXmXCXCXCXCX9X,X(.9XCXZXHXLXLXKXKXKXGXGXGX2XE.D p.l.).[.D.D.L.L.n.n.D.D.n.r.k.z.!.Y.E.,X9X<XO.9 5 5 ` ` 6 ` wXMXaXMXMXNXmXlXVXzX",
"SXMXAXZXCXcX~.m 5.o.NXCXCXHXLXLXLXLXGXGX^.Q F Z N N A &.&.&.7.k.k.v.M.[.m.d.d.d.T.i.( K o.6.:X| | O.t 6 +.eXDXcXbXbXcXNXSXVXVXVX",
"SXSXHXNXHX<XW i S / >XIXNXHXPXJXJXJXPX6X-.d.k.e.9.%.%.Z N N &.d.q.e.M.m.y.D V V b s H w 2 , @.<XO.' t O.AXSXcXcXbX<X~.>XNXSXVXVX",
"SXAXHXFXGX~.c c x :.o.3XKXFXJXHXJXHXnX/.}.|.n.c.b.m.Q.f.p.p.f.h.w.e.z.l.-.V V b s H H H P P ; @.1X+.O.%XNXcXbXbX9Xo.s  .<XDXmXzX",
"AXAXHXbXqX:.c M x :.Q <.vXNXJXSXDXnXqXOX{.n.n.P.x.b.m.l.Q.Q.l.k.q.d.l.g.%.F F F D D S S ) E 6.4 %X+.9 +.DXJXbX9X,XJ : g ~.bXDXDX",
"AXAXHXFXqXE.i.D :.Y.~ n @.bXFXPXnXnX6XOXm.D.Z.e.k.q.d.d.d.9.9.q.q.h.l.y.A A %.-.~ D D F S ( W o.@.} ` eXDXbX9X6X^.i v v  .9XDXDX",
"SXHXHXHXvX,XY.( I b J ^ Y ^ 9XnXnXqX+X).[.b.w.7.Z D V x Q %.%.d.d.h.g.A G c c c m m W V ! S S ( ~.:X1XFXFXbX6X/.i.> > K P 5XDXSX",
"LXJXHXJXPX9X,X^.1.~. .v I K W Y.`.OX{.[.k.7.8.N x i J I M D d.h.l.y.%.G c z n v s v b n n S ( W ~.>X<XLXcX~.( !.Y.K K ^ E 5XDXNX",
":X>X<XcXcX9X0XqXGXnXnX9X<.K n S d.XXF.z.q.%.T./.,X<.b i D y.q.k.h.d.A N x > H 4 H < 4 4 > m _ ) o.(.9X<X#.j J b ; : g | o.9XFXLX",
"w L | | L J K ^ o.~.~.>X,X1.i a.XXZ.r.S.9.a.7XnX3X3X,Xb Z d.b.x.k.z.%.N m b g 3 P @.~.2.K v m ) 6.6. .P | j u s ..2.2.>X9XGXnXvX",
"L L h L  .....o.o.L h h L T B Q.oXA.Z.q.&.8XnXX.8 k <X^.p &.F.Z.n.z.9.N B K 3 X.<XcX:X<X<XH v _ 5.S n J g h / E.^.0XnXnX0X7X2X0X",
"4 4 : : h L L U L g h h h s x ).oXA.Z.q.d.8X2X# f o 2.2Xp d.F.N.Z.m.z.F V s < >X>Xr . L <X~.> W F t.! z <.^.E.`.^.`.`.`.`.`.^./.",
"s J v s g g h L g : < 3 J : x {.XXD. XS.q.).`.i # a T ;.N {. XA.Z.n.m.l.~ m v ~. .$ w @ (.,Xv m A 8.t.N <.^.R.Q.R.R.R.R.R.f.T.W.",
"L Y J v h j k k h g h f s i %.@X X XZ.D.D.w.d.&.M M p.f.{..XG.Z.Z.n.b.}.Q.T.B v K ; ; s ~.^ K ( F u.F : I E.T.g.f.f.f.f.f.f.f.>.",
"L J J J g g w j g 4 g g s i ).oXP.I.H.Z.Z.Z.b.c.b.D. X.X XD.x.n.n.n.b.k.l.Q.a.~ B x x n n n W ( i.t.T.; @ s :.T.R.T.W.W.R.R.R.f.",
"f 4 s s w w w w w g g s > c [.U.J.I.H.H.H.K.K.K.K.J.K.Z.Z.n.x.c.x.c.e.e.d.u.s.t.i.-.~ ~ Q Q ~ i.i.a.!.b . @ a b :.;.1.3.:.=.=.>.",
"q 3 3 3 q q 0 2 3 w g : : %.oXJ.J.K.K.J.K.J.J.H.x.K.U.H.x.c.n.n.b.v.k.k.q.8.A 8.t.t.t.p.i.i.i.i.t.a.!.o.. $ . @ @ @ : h n C C M ",
"3 q < < < , 1 O , 2 < : @ d.XXJ.J.K.K.K.K.J.Z.c.P.D.n.b.b.b.v.k.v.k.h.d.8.A A A %.%.F %.p.a.p.t.s.s.a.Y.@ 7 O $ @ @ - a Y Y.T.-.",
"% < X X X X , X X $ @ @ ; l.XXJ.U.K.P.Z.Z.L.c.7.m.k.l._._.l.l.l.h.g.y.%.F F ! ~ ! -.D S F t.t.8.u.0.s.Y.3 $ 7 = < @ - - : Y / Q ",
"< q $ O X X 3 @ $ O . @ : ).oXJ.J.K.P.A.D.b.7.&.y.x : x D p.p.-.-.-.Q Q W W K b i B S V F F %.8.0.0.u.T.4   * * 3 @ = = - # : i ",
"3 j q 0 < ; 4 3 * 8 - @ p {.oXJ.B.B.J.F.S.q.Z 9.y.M : @ @ : x b x x x b v 4 ; X X s b V ! F F 8.8.u.g.!.s   2 < ; X = 0 8 = @ @ ",
"; g q q 3 3 H 4 3 q 8 @ x @XoXJ.C.B.A.b.l.9.Z ).}.m.Q.g.%.S V p x i i v 4 ; ; 3 4 v z b D ~ F 8.8.u.u.T.s   2 < ; @ % 7 = * q 3 ",
"X w q 3 f a a h a 3 * ; D .XJ.B.B.A.Z.m.9.Z m. XD.L.D.D.D.).T.;.C x p p b K K n I B B N N D F F t.s.u.T.K   q 2 < @ @ % 3 3 q * ",
"X w q 3 f h f h a 4 w : A XXU.B.B.K.D.q.&.k.L.U.K.K.N.N.N.b.Q.R.R.g.-.D V V S Q ! ~ ! S N G F -.t.s.u.j.b   2 = < ; ; < ; 3 q * ",
"+ w g f h U h h a 3 g s y.XXH.K.H.A.v.&.&.L.H.K.K.H.K.C.B.x.k.k.m.k.k.d.y.%.F %.-.t.-.D N c S D t.s.u.j.b . 0 2 , ; < < ; 3 q & ",
"+ q j g h U U L g h L : &.XXP.H.Z.b.q.7.e.U.K.K.K.H.V.B.N.x.c.b.G.x.G.F.S.z.8.8.8.t.t.-.D N S D F 8.s.a.v X 0 0 , < < < < w q $ ",
"+ 1 j g h U U U L L Y i 7.oXP.L.L.M.w.7.Z.I.I.K.oXP.K.K.A.n.b.x.N.x.G.F.S.z.0.8.t.t.i.i.! S V D F 8.s.a.i X = & 2 < 2 2 3 g r & ",
"+ % j g h Y U U L Y Y x w.U.L.|.D.M.7.w.I.K.oXL..X|.|.|.|.{.[.S.D.S.F.[.}.j.s.s.a.i.i.i.~ V c S F 8.s.a.z ; 0 0 2 < 2 3 w j r & ",
"X X k J J Y U  ...o.b i w.U.oX|.n.v.7.M.XXL.S.l.>.>.-.>.p.T.!._.).).).!.a.-.Q Q :.( Y.Y.i.S N S D %.s.a.z 3 w e 1 , 3 w q w q & ",
". . g J J Y U  .2.b : &.U.U.Z.|.D.c.7.|.|.9.x : : : u i u : : i x x i i : : > > > s I <.:.S N G D %.s.a.i : q q 1 2 w w w q 0 7 ",
"- @ : K R I ..1.b i g.XXC.B.P.L.Z.w.e.@X%.i @ @ a k f q q L L L a h h  .g : J s < ; ; > ) ~ N G D t.s.a.) X % e 0 1 , q r e 0 0 ",
"h a : n Q <.1.d : g.+X XC.C.P.D.Z.w.k.).x @ - $ o $ o o $ 3 w q q k | X.L 3 q X % % @ ; v Q N G F 8.t.a.~ > < e e 0 % , 0 0 7 0 ",
"T ;.;.W.W.E.o.# %.+XXXP.C.C.H.D.n.w.m.y.@ $ 7 7 7 & o o . . . . . o . = .   * % $ % X @ ; W V S F %.t.s.~ K < 0 q q % X 0 0 O 0 ",
"1.W.E.E.Y.1.J p OX@XP.J.C.C.K.Z.b.e.}.D @ & 7 5 O O O O X X X $ $ $ $ $ X . * = O & % @ @ K S S F F t.t.~ ) < O & q , X t 0 O 0 ",
"1.3.T.p.Y.<.a <.+XF.U.U.B.U.P.n.k.k.).x : 8 o o + + + X $ $ @ = $ - - - @ . X   O O 0 % @ b W D F %.s.t.~ ( < O & w , X t 0 O 1 ",
";.3.R.>.Y.T h `..XA.U.J.J.U.Z.D.k.h.Q.i u w o o O X X % $ $ $ @ * * - $ @ @ = $ . o q % @ v W D F 8.s.4.~ ( 4 O 0 w 2 X 0 0 O 1 ",
"1.3.R.=.R s ..7X.XJ.A.J.U.J.Z.D.k.h.Q.p i g e o O % % = 9 9 8 8 = * * = % % . . o 7 e = @ J W Q %.8.s.F 4.( H 1 e w 2 X 5 t 1 , ",
"*.3.W.=.R a 2.6X[.J.J.U.K.A.P.b.k.h._.M i J j   X % < * 9 9 8 8 * 8 * $ % = = * O [ j 2 X K W ! t.t.s.A 8.! H % w w 2 , 0 t 0 , ",
"=.3.3.R ..J ~.7X}. XU.K.J.P.F.m.d.g.g.G : u ~.2.@ * = q 8 e 8 f f - f - < @ 3 X O | r X 4 I W Q :.-.F A 4.~ > % O ' r O y O 2 2 ",
",.>.R J Y s Y.8X{. XP.K.J.P.F.S.z.9.g.F i x nX2Xg 3 k f 3 q q 3 - f a a a : . . | :XX.  v W S ! ~ ! A A 4.~ v X O 5     q 2 0 1 ",
",.=.R T o.4 o.8X{. XP.K.J.J.P.D.z.9.d.y.N i `.0X2Xd # # h h f a f f # a s # f  .2.:X .X Y I S ! D D G A ~ ! J X 0 e t 0 r 2 0 q ",
",.=.;.1.1.3 Y qXOX[.P.J.J.J.P.P.v.q.q.l.h.N M 7X2Xb u d 1.1.1...U l h a : a 3XnX2.g w H / m D D G A G F ~ ) P O O 5 O O 1 O O O ",
"=.=.;.....< K 0XOX}.F.P.J.J.J.K.L.e.w.v.k.l.&.'.'.`.W.;.*.T 1.1.1.1...T ^.2XnX,X .@ 4 o.^ m D G A A A ~ ) ^ P % 0 0 + X O O 0 e ",
"=.=.R T ..f L 0X6X}.[.P.K.K.I.K.P.n.c.c.M.v.k.>.h.8X8X4X`.W.^.^.2X0X2X7XnX0X<.H J K ^ / I S S G A F F ~ ( ^ P O O O O P r O + O ",
"C =.T T ..g L 6XqXOX}. XL.K.I.V.H.L.n.n. Xv.v.v.h._.'.'.7X7XqX0XqX0X^.^.7X^.b b K o.<.I B S D A 4.F ! ) o.X.r O r 1   , 0 r r t ",
"C =.;.Y U 3 w ,XqX6XOX{.F.K.I.V.H.Z.n.n.n.n.c.v.M.h.h.C 3.W.W.*.;.<./ u I V n W / / / m S c F 8.4.F ! W o.#.0 o   1 O , X e e o ",
"C =.;.d 3  .g >XqX0XT.Q..XL.I.K.P.Z.x.n.n.n.b.v.M.)._.f.>.=.M u u p V I V I W / W W W S S S F 8.F F ) o.@.@.5 0 + X X , O q e 7 ",
"R R p T U o.L o.9X0X6X!.}.|.Z.P.Z.Z.G.x.n.Z.b.e.v.m._._.R.W.W.Y.<./ R Q / :./ W I B B V D F -.t.F ! ( o.@.#.5 O 0 + + r r 0 7 [ ",
"T p <.Y d J 3 | 3XvXqX/.Q.}.D.P.L.L.Z.x.c.n.n.v.7.&.&.y.T.E.W.Y.E.Y./ Q W W V b W B m S D ~ ~ ! ! ) o.@.*X| 7 o + X X 1 O 7 7 7 ",
"T b T Y d h  .k :XvXvX6X/.Q.{.[.F.D.D.n.c.e.b.[.v.9.N x c V V V V V V V b m V I B V V S ! ~ ! ! ( o.@.:X*X' 5 O X O O 0 & & O 7 ",
"J L J / u T ..f X.<XvXvX6X!.).[.S.D.D.D.b.e.e.v.).l.y.G x x b b x x x b n I I B m m V S ! ~ ! ) o.@.~.:X@.5 5 1 O 2 0 0 0 0 $ 0 ",
"3 g Y Y u Y J L g @.cXnX9X/.a.Q.[.F.D.Z.b.b.k.q.9.9.%.D V B B n I I I I I I n b m V S S ! ! ! ) o.@.:X:XO.5 5 y X 2 O 7 7 0 % 2 ",
"3 h : d T p T U j | >X9X0X6XT.Q.[.D.Z.n.b.b.v.h.h.9.Z N x x x x b b n n n n n I S S S S ! ! ! ( @.:X:X%X' 5 y + 2 1 o t r 0 X w ",
"g g # d T u # g X.| #.<XnXqX6XQ.k.r.b.D.D.v.k.m.h.d.y.p.Q c z z z z v b b n n B S S S S ! ( ( o.@.:X:X+.9 t 0   , w 0 5 t j 2 < "
};
