/* XPM */
static char *_cad0725a6ac46a7ae252686572be8689z3Rdcb0kKC1NcaQ[] = {
/* columns rows colors chars-per-pixel */
"64 64 256 2 ",
"   c #040302",
".  c #090502",
"X  c #020A00",
"o  c #0C0B02",
"O  c #0B090A",
"+  c #120C02",
"@  c #120D08",
"#  c #151303",
"$  c #1A1402",
"%  c #15130B",
"&  c #1B150B",
"*  c #1C1A0C",
"=  c #1A1B04",
"-  c #1A1815",
";  c #0C1607",
":  c #231C0C",
">  c #211A03",
",  c #231D13",
"<  c #231C19",
"1  c #192404",
"2  c #132507",
"3  c #272707",
"4  c #293505",
"5  c #353705",
"6  c #2A2617",
"7  c #342C19",
"8  c #393819",
"9  c #2F3012",
"0  c #2D2722",
"q  c #342A23",
"w  c #3B3626",
"e  c #423C12",
"r  c #443B27",
"t  c #473E31",
"y  c #3A4608",
"u  c #3A4518",
"i  c #2B490B",
"p  c #394D25",
"a  c #454906",
"s  c #55580A",
"d  c #474C1A",
"f  c #495619",
"g  c #555A18",
"h  c #4B5406",
"j  c #596619",
"k  c #4D651B",
"l  c #656A16",
"z  c #6F7612",
"x  c #464726",
"c  c #4C5627",
"v  c #545929",
"b  c #4B4635",
"n  c #544B38",
"m  c #5A573A",
"M  c #4E5331",
"N  c #645D31",
"B  c #5A6524",
"V  c #586627",
"C  c #546D31",
"Z  c #636B29",
"A  c #68742A",
"S  c #747A28",
"D  c #646B33",
"F  c #697534",
"G  c #767A38",
"H  c #736C35",
"J  c #5E5845",
"K  c #534D44",
"L  c #645C46",
"P  c #605C50",
"I  c #597652",
"U  c #537549",
"Y  c #69654A",
"T  c #6F704F",
"R  c #787967",
"E  c #857B64",
"W  c #817D33",
"Q  c #77841C",
"!  c #798429",
"~  c #7A8734",
"^  c #748C39",
"/  c #59803D",
"(  c #5A8D4E",
")  c #56894B",
"_  c #56944E",
"`  c #5B934E",
"'  c #5D9B4D",
"]  c #559344",
"[  c #5A8B53",
"{  c #569452",
"}  c #5B9352",
"|  c #5C9B53",
" . c #599658",
".. c #488649",
"X. c #648C49",
"o. c #7C8445",
"O. c #63994D",
"+. c #658A59",
"@. c #629354",
"#. c #629C53",
"$. c #64945A",
"%. c #699957",
"&. c #79924E",
"*. c #5EA455",
"=. c #5FA149",
"-. c #64A34C",
";. c #6AAA4B",
":. c #75B54D",
">. c #63A355",
",. c #67A958",
"<. c #76AA58",
"1. c #69B258",
"2. c #78B657",
"3. c #68B64B",
"4. c #6B9764",
"5. c #75986A",
"6. c #738E6C",
"7. c #77A767",
"8. c #79B662",
"9. c #7BA674",
"0. c #6EAB62",
"q. c #78C24C",
"w. c #848B17",
"e. c #85882A",
"r. c #8A9728",
"t. c #848B38",
"y. c #899538",
"u. c #949B39",
"i. c #95992C",
"p. c #99A82B",
"a. c #98A737",
"s. c #94AB34",
"d. c #A4B32C",
"f. c #A4AC3C",
"g. c #A8B739",
"h. c #AEB937",
"j. c #B5C839",
"k. c #B4CA39",
"l. c #C1D43D",
"z. c #878C44",
"x. c #8A9644",
"c. c #979B49",
"v. c #949955",
"b. c #879155",
"n. c #9AA744",
"m. c #85A95A",
"M. c #9AA554",
"N. c #84BA5A",
"B. c #9AB64F",
"V. c #A4AA46",
"C. c #AAB645",
"Z. c #B3BB4A",
"A. c #A5A956",
"S. c #AAB856",
"D. c #B5BC55",
"F. c #B2AB40",
"G. c #829978",
"H. c #929071",
"J. c #87AA64",
"K. c #86B666",
"L. c #85A77B",
"P. c #94B471",
"I. c #A5A86A",
"U. c #A8A874",
"Y. c #B6BA79",
"T. c #AFB86D",
"R. c #A09E59",
"E. c #88C55A",
"W. c #95C85B",
"Q. c #95D25E",
"!. c #B9C747",
"~. c #A5C65A",
"^. c #BAC656",
"/. c #B7D44F",
"(. c #8CC763",
"). c #93CC63",
"_. c #98C967",
"`. c #9BD566",
"'. c #95C773",
"]. c #A7C866",
"[. c #A5D969",
"{. c #ABDC73",
"}. c #B8DA74",
"|. c #B3D069",
" X c #ABE26B",
".X c #B7E677",
"XX c #B3E571",
"oX c #C3CA4B",
"OX c #C6D948",
"+X c #C6CC57",
"@X c #CBD35C",
"#X c #C9D656",
"$X c #D3DB59",
"%X c #D2D64E",
"&X c #CDE34C",
"*X c #D1E64C",
"=X c #D5E759",
"-X c #D6EC58",
";X c #C9D766",
":X c #D3DB67",
">X c #C8D370",
",X c #CAE66B",
"<X c #DAE569",
"1X c #DDF469",
"2X c #C4E979",
"3X c #D9E676",
"4X c #C9F37C",
"5X c #D5F574",
"6X c #E2EB78",
"7X c #E4F471",
"8X c #E0F95F",
"9X c #929984",
"0X c #8CAC83",
"qX c #94B98A",
"wX c #9BBA94",
"eX c #91B188",
"rX c #B9B888",
"tX c #ACB093",
"yX c #B6BAA4",
"uX c #A29D89",
"iX c #C1BEA2",
"pX c #A6C99B",
"aX c #ACD396",
"sX c #ACC6A4",
"dX c #B5D4AB",
"fX c #BDE8B4",
"gX c #A9D593",
"hX c #C9C79C",
"jX c #CFD68A",
"kX c #D9E785",
"lX c #CAF583",
"zX c #D4F789",
"xX c #CCED87",
"cX c #E4EC8A",
"vX c #C9C7A5",
"bX c #D9D8B7",
"nX c #D1D1AE",
"mX c #CAEEB7",
"MX c #E5E4AE",
"NX c #E6DDA6",
"BX c #DDDCC4",
"VX c #CADDC0",
"CX c #E1DEC7",
"ZX c #D7F4CD",
"AX c #D4EECB",
"SX c #E7E5C9",
"DX c #EBE8D5",
"FX c #E6FCDB",
"GX c #F6F4D9",
"HX c #EBF5D2",
"JX c #ECFEE5",
"KX c #F3FFEC",
"LX c #FDFDEB",
"PX c #F8F9E5",
"IX c #FAFEF2",
"UX c #F5EEE6",
/* pixels */
"` ` _ _ _ _ _ _ ( @.$.@.( } { { { _ { } { ` @.@.' ] #.( ` ' ` ( } ` } ` } } ) ` } } } } } } } } { | _ | _ { } ` } } } } } } } } ",
"` ` ` _ _ _ _ _ } ( ) [ $.@.4.{ { | } } _ } [ [ ` ] ( ` ` ` @.@.( } @.{ ) | #.} } } #.) $.} } } _ } | ) _ #.) ` ` ` { { } } } } ",
"} } ` _ _ _ _ ` @.U L.fX$.) ) [ ) ) [ [ [ ) dXdX) ( $.( 7.( $.( ( ` ( ) $.) ( ( ( ) ) } ) [ } @.} ) } $.} ( } ` ` ` { ` { { { { ",
"} } } ` _ ` ` ` @.( eXZXmX5.5.L.qXqXqX9.9.dXAXpX) $.$.+.pXaX9.5.9.7.$.$.%.$.$.4.9.7.7.7.9.$.9.$.4.$.$.[ } @.$.` ` ` ` ` ` ` { { ",
"} } } } ` ` ` ` ( $.[ U wXKXJXAXL.L.wXZXJX0XI I +.I [ pXfX+.sXL.sXqX0XwX4.0XqXL.pXwXqXpXL.qXpXL.qX5.eXL.[ ) #.` ` ` ` ` ` ` ` ` ",
"} } } } ` ` ` } $.[ $.+.FXKXLXtXI U U eXFX6.L.wXeXwX4.9.wXwXsX5.L.wXwXwXpXsXG.6.6.wXpXsXwX6.G.dXsXsX+.9.dXwX4.` ` ' ` ` ` ` ` ` ",
"{ } } } ` ` ` } { ) [ 4.FXKXIXIXZXdXeX5.6.I 6.FXKXVX+.I dXKXKX6.wXKXIX9X9XKXKXG.JXKXG.0XKXJXG.FXKXdX6.fXmX7.` #.O.' ' ' ' ` ` ` ",
"{ { } } } ` ` } {  . .[ 6.sXFXKXKXKXKXKXJXyX+.ZXKXZX0X0XmXKXJX6.9XIXKXyXtXJXdXyXKXZXsXsXVXHXeXAXKXVXZXmXI @.,.#.#.#.' ' ' ' ` } ",
"{ { } } } ` ` { {  .{  .9.5.I G.eXsXJXKXKXIX0XAXKXAX0XqXVXKXFX6.9XJXKXdXZXFXG.wXKXZXL.6.5.eX5.ZXKXBXZXFXaX%.,.#.#.-.' ' #.#.#.#.",
"{ { { } } ` ` _ { {  ...fXJX6.U I I 6.JXKXKXL.AXKXAX+.U pXJXFX5.L.JXJXL.L.FXFXqXfXFXFXmXmXaX5.FXPXnXG.FXFXaX` <.>.-.-.-.#.#.#.#.",
"{ { { } } ` ` _ { .. .{ gXFXAXpX0X0XdXJXAX0X5.fXmXfX7.7.aXmXmXP.P.mXmXgX<.gXmXaX7.K.gXgXK.<.'.dXmXaXJ.P.HXHXaX,.,.;.-.-.-.#.#.#.",
"} { { } { ` ` ` _ | } ) $.%.P.L.L.qXqX4.+.[ 5.%.@.%.%.%.<.%.%.7.K.<.<.N.K.2.2.K.(.K.2.2.(.(.N.2.K.J.P.J.P.K.'.8.<.;.;.;.-.-.#.O.",
"} } } { { { { { ` } @.X.X.X.X.X.@.) } 4.%.%.,.%.,.,.<.<.<.2.K.K.N.:.(.E.N.).(.).E.`.).(.).(.)._.(.'.K.K.N.N.N.2.2.:.<.;.;.-.-.-.",
"} } { { { { { } @.%.X.X.J.J.X.%.#.' ,.} #.>.<.>.;.;.:.:.:.N.N.N.N.E.W.E._.).`.).`.`.`.`.`.`.).E.`._.)._.[.E.E.E.N.2.2.:.;.;.;.-.",
"` ` _ { { { } @.@.X.&.J.^ X.'.X.-.*.>.>.-.1.,.1.3.3.2.2.:.2.E._.W.[.[._.{.[.[.[.{.[.{.[.[.[.XX X[.`.`.`.E.`.).E.E.E.2.2.2.:.;.;.",
"` ` ` ` { { } @.@.&.P.&.1 y ].m.O.>.>.>.1.3.1.2.3.:.2.N.W.`.[.W.~.~.|.~.~.|.}..X.X{..XXX.XXXXX[. X[. X`.[.`.`.Q.W.E.E.N.2.2.:.;.",
"` ` ` ` ` } O.@.X.P.T.f X 4 aXP.%.1.*.1.3.3.1.8.8.N._.].~.B.B.s.s.g.g.g.!./.;X2XxXxX2X2X.X.X.XXXXXXXXX X[.[.[.`.Q.Q.E.E.2.2.2.:.",
"` ` ` ` } ' #.O.X.J.T.V 4 f v.Y.%.,.1.1.3.:.2.K.'.P.S.B.n.a.a.s.j.h.h.!.#X$X:XkXkXkX;X;X,X2X4X4X.X.X.XXXXXXX[.[.[.`.).(.E.E.2.2.",
"} } { ` | | #.#.%./ C k i 4 4 F m.<.;.2.2.2.K.P.m.F g l t.V.S.^.h.!.#X+X@X3XcXcXcX3X;X#X#X,X,X2X2X2X.X.X.X.XXX{.{.[.`.).).E.E.2.",
"} { { | | | | #.#.%.%.X.C p i i A m.m.<.2.K.K.F y 5 5 a a s ! ^.;X#X/.@X3X3XkXcXcX3X$X#XOX#X,X5X4X4X2X2X2X.X.X.X{.{.[.`.).E.E.E.",
"{ { { | | | | #.#.0.,.,.<.7.O.p i T J.K.K.K.&.f f Z S G l s h Z D.3X<X1X6X3XkXcXcX6X=XOXOXOX;X3X5X4X4X4X2X2X.X.X.X{.{.[.`.Q.E.E.",
"{ | | | | | | >.>.>.,.,.0.<.<.K.C 4 k &.&.C y j G o.t.x.c.x.D a h S.6X7X<X<X3X:X:X:X$X%XOXoX@X>X5X4XlX4X4X4XlX.X.XXX{.[.`.).E.E.",
"{ | | | | *.*.*.,.>.>.,.0.0.,.8.J.f f k f y 5 v B Z F F ~ t.z.F 5 Z ^.1X1X1X$X:X:X:X:X:X#X+X+X;X2XlXzXlX4XlX4X.X.X.XXX{.[.`.).E.",
"| ' | | #.#.>.*.*.,.*.1.,.1.8.8.J.&.F V u 3 9 5 8 d D F A Z Z v x d V.^.!.=X#X@X>X^.A.c.r.Q ! ! >XlXzXlXlXlX4X.X.X.X}.{.{.[._.).",
"| | | #.#.>.>.>.,.,.1.1.1.1.8.2.m.v.A f u = 1 9 J T m Y o.o.f 4 3 x y.f.h.!.!.Z.S a f y a s h h Q |.zXlXzXlXlX4X2X2X2X].}.}.]._.",
"| | #.#.>.>.>.>.,.,.1.1.1.2.8.K.M.G j A V 5 8 Y tXr > e Y.v.F 1 = 3 l i.f.g.p.! l G o.b.v.M.x.~ z s.zXzXzXlXxXzXzX}.n.S.B.].].S.",
"' ' #.#.>.>.>.,.,.1.1.1.2.2.2.m.^ S y.n.n.~ s s H N e 5 NXMXb.3 $ 5 l i.p.i.e.S S G G ~ ~ y.a.V.p.V.6XzXzXzXzXjXM.l ~ x.S n.|.S.",
"' | #.>.>.>.,.,.1.1.1.1.2.N.<.x.t.n.Z.!.@X@XV.e.l S z.A.T.A.g 3 g t.c.Z.f.i.e.! Z Z o.b.z.x.y.r.f.!.3XkX2X}.|.^ h s M.! ! n.].S.",
"| | | >.>.,.,.,.1.1.1.1.K.m.&.^ u.C.!.oX%X$X$X+XZ.V.u.y.u.y.e.f.Z.^.+X3X+XV.e.l D v 9 x H.z.A ! i.f.^.^.B.y.x.^ j h l c.B.|.|.W.",
"| | *.>.>.,.,.1.1.1.1.2.K.m.o.~ y.n.C.!.oXoX+XC.y.S t.c.V.u.F.+XoX!.+X3X+XZ.y.5 G e $ 3 bXMXZ e.w.p.^.C.B.~.].}.].S.~ ^ B.}.W.W.",
"| | *.*.,.,.,.1.1.1.1.2.m.&.A Z V G x.M.D.D.x.h 3 d G z.S e.F.Z.@X;X3X6X:X;XD.z 5 Z N G NXjXV.i.i.Z.,X|.XXlXlXlXxX}.xX}.].).E.E.",
"| | *.*.>.,.,.1.1.0.<.<.m.F s g f 5 y f j j 5 = = r e d a S c.Z.^.@X;X;X<X:X;X+Xu.z t.c.c.n.h.h.!.$X5X5X4X.X.X.XXXXX[.[._.E.).q.",
"| ' ' >.>.>.,.1.,.0.7.J.^ S ! t.z.a y f y a y u 3 = + # 5 B z.A.Z.oXoXoX#X%X#X#X@X^.V.V.V.C.!.%X$X=X7X5X2X.X.XXX X[.[.`._.(.E.q.",
"#.#.#.#.*.>.,.0.9.7.K.b.^ ~ y.c.F F f f v G b.o.F v 5 3 $ 3 s t.V.Z.!.!.+XoX!.#X!.@X:X:X6X7X1X=X=X-X7X,X2X.X.XXX X[.`._.(.(.2.:.",
"} | #.,.7.7.7.7.X.F m.^ ~ ~ x.^ Z F f 4 y Z z.v.M.A.V.u.S s e 5 e s z e.i.w.z V.C.e.;X6X7X7X7X1X-X8X7X,XXX X X X`.`.).E.E.N.:.:.",
"@.4.5.5.$.C i 2 ; 4 F F A A A B V D F o.g 5 Z t.u.V.f.g.^.>XT.c.W z z S w.l a l r.z Z.:X<X7X<X1X-X8X5XXX X X[.`.).).E.N.N.2.:.;.",
"5.5.+.M 2 X X ; u V D Z A Z B j D D Z Z b.T y g c.c.f.oX%XoXoXoX^.F.!.oX+X$X!.oX!.z r.Z.@X<X<X<X-X8X5X X[.`.`.).E.E.E.N.2.<.;.;.",
"I p 2 X X 2 u c v V g Z G G V B F F B g Z z.o.Z s e.D.@X#X%XOXj.h.h.#X$X$X$X$X$X<X@Xz Q C.!.$X<X-X8X5X[.`.Q.E.E.E.2.:.:.<.,.;.-.",
"X X X X = 8 x M c V B D V Z B D F B Z B g Z G x.v.S Z c.^.@XoX#X+X@X:X<X<X<X<X<X#X#X@Xw.z Z.h.OX*X-X,XW.W.E.E.2.2.:.;.;.,.>.-.-.",
"      X 6 b M c C c V D Z G V V F F B B j j A A z.R.I.v.G ! i.f.^.6XcX6X3X:X:X@X#X#X@X+Xw.w.j.j.&X-X,XB.N.N.2.2.1.;.;.-.>.>.' ' ",
"O .   * 6 M M v V v c B D Z Z Z F C B B B j j S ~ t.v.I.|.T.x.~ S ~ y.n.C.Z.C.Z.f.h.h.$XOXd.j.OXOX1Xy.^ _.<.<.<.<.>.-.=.-.' >._ ",
"O . . , 3 x v v c V c f D F Z A C V f f B B B A ~ y.x.z.x.M.Y.jXjXjX>X^.D.Z.Z.!.h.g.d.oX&Xl.OXOX&X1Xz k &.<.<.%.%.%.,.] ' ] _ } ",
"O   o * = 8 c v v v c d V F Z Z V C B f f B B Z A ~ y.u.a.a.u.u.V.S.^.+X@X@X#X#XOX=X&X*X*X&X=X-X-X1X~.^ V F %.%.4.} @.` #.@.@.$.",
"  X X # # 3 8 M v c c c d k C V C F D B B B V A ! ~ r.r.i.s.a.V.f.g.g.g.g.j.j.!.OX&X&XOXOX&X&X&X&X#X3XA.V u M C +.4.+.+.+.+.+.+.",
"  O   o * = 3 x x x c c u u V C D F A A ! S ! t.! r.r.r.r.r.p.f.f.g.C.C.!.j.j.k.k.l.OXOX&X-XOXOXOX=X,X>Xb.1 x M u T I U m C T &.",
"  O   o - % # 6 8 x x d d u u v D D A ! y.u.a.n.a.a.p.p.d.p.p.p.d.g.g.f.g.j.j.k.k.k.OX&X&XOXk.k.OX=X=XkXz.# r Y d 4 w w w 8 T b.",
"  .     % - % ; 9 p u u x u 9 u c v B A t.a.n.C.!.!.!.h.g.d.d.h.g.g.g.d.g.j.j.k.OXOXOX&X&XOX!.OX*XOX1X3XH : n T Y > 6 w r e L E ",
".         - 6 ; 2 9 8 x x x 8 9 u f v B S y.a.C.!././.!.!.oXOXOX/./.k.k.k./.OX&X&X&XOXOXk.j.k.OX&X1X7X>XT + t t r 7 w r x b 7 E ",
"O     - o o 6 6 # 3 9 8 x x u 8 3 4 u f B S t.a.C.C.!.!.!.!.OXOX&X&X*X*X*X&X&X&X&XOXOXj.j.k.l.=X1XcXkXY.r $ b r $ n t n n r 8 E ",
"  - . % 6 * 7 7 7 $ # 9 8 u u 8 9 9 4 5 y k G x.n.V.C.h.h.j.j.!.OX&X&X*X*X&XOXOXOXOXh.d.j.OX1X1X3X>XY.T 9 t 6 7 n r 7 6 b 8 e vX",
"% . % X 7 b J Y Y n 3 > 3 4 8 8 8 6 3 3 3 9 f D z.c.M.n.a.g.!.!.!./.!.!.#X#X!.!.d.p.d.!.#X=X7X,XS.T.b.= 7 t r : L T 7 r L 6 $ nX",
"  . % o * * T uXuXH.T D v d f y u 5 4 4 3 1 1 3 5 h l ! e.a.a.f.f.!.!.C.C.f.p.p.d.j.OX#X3X3X^.M.jXI.= 7 : : 6 7 3 N Y 6 L : H.LX",
"-   @   , * 6 E uXU.U.U.R.v.M.c.x.t.~ ! S S A A l l l l l z S ! e.u.a.p.p.p.d.j.j.OX,X;X>XT.I.hXH.x 7 * , 7 > m e m b b n w DXLX",
"% - % % - # * 8 H.iXrXU.I.M.c.S.C.C.V.f.V.C.C.V.V.V.V.V.V.a.u.u.n.a.a.f.C.!.!.!.#X:X^.A.I.rXrXH.x 6 K , % , r 9 N 3 L H.n R IXUX",
"o o %   + 6 * + J tXhXU.I.I.z.c.V.C.Z.C.h.h.g.d.d.d.d.d.g.g.C.Z.!.h.!.#X^.^.^.S.T.I.U.hXMXvXb.9 7 7 0 & w , : r 9 8 8 n L nXIXDX",
"  # # + * . + : w Y tXrXU.rXI.v.c.n.S.Z.Z.Z.h.h.h.h.h.g.h.!.!.^.^.^.+XS.e.S x.R.rXbXPXGXvXY 9 m $ % K b + w r r 9 r 3 8 P PXUXLX",
"o * . % *   o . & w J H.nXhXhXrXU.I.v.v.A.S.D.Z.C.C.C.Z.Z.C.C.C.x.t.~ 5 G T rXnXDXLXIX9Xw w 9 w : , 6 6 6 t Y 7 m Y > 8 H.PXUXLX",
". - o   o . . . . & 6 b R vXvXvXbXrXU.I.Y.T.T.c.y.y.t.u.c.u.t.S B T rXU.nXSXbXGXLXCXR 6 * P # * 6 b + n : r b 7 J 7 8 x vXDXUXUX",
"  - - o % - % % 0 6 6 6 7 m tXnXvXrXbXhXhXrXrXrXrXU.I.U.U.I.I.U.hXnXSXLXPXGXPXSXH.7 $ 6 * : , q + # L L w $ w 6 6 + : Y CXGXSXUX",
"@ - - @ o % - 6 6 < % 6 6 6 w tXbXhXnXvXnXnXnXnXnXbXbXnXvXvXbXGXGXLXPXLXLXCXH.J $ x 9 9 Y . $ 7 w 7 T m x : 6 , 6 : = uXSXCXDXDX",
". . , * # & % @ @   . - O % % n vXnXnXnXbXbXnXvXbXSXBXbXCXHXGXGXHXvXyXuXY b + b n > 8 o 6 7 w q r 6 T Y b r t + n & w bXbXBXGXDX",
"o . # + . * , % @ - O       @ # tXbXSXHXGXDXGXDXDXDXDXDXbXyXtXH.Y L b n # 6 : 6 w $ r $ $ & , & 6 6 6 7 > w , + 6 # R BXnXSXBXDX",
"@ @ % % & * # o % . @ %   %   . o b R 9XH.H.tXyXiXiXyXuXJ q w w , 0 & : 6 : $ 6 . , T 0 @ # 7 + q b : 7 $ + , , . b vXvXSXbXBXSX",
"O O . @ - + o 6 # 6 - 6 q o * w o           # . % 6 q 0 , 6 0   q 0 @ $ m = 7 7 & + & < 0 + & & 0 0 $ > b 7 & w & H.yXnXbXbXSXBX"
};
