/* XPM */
static char *f127f59b69984afae42e65cb6f6b3718yPte2VgcZutkRDxF[] = {
/* columns rows colors chars-per-pixel */
"64 64 256 2 ",
"   c #090400",
".  c #170502",
"X  c #191603",
"o  c #0E1505",
"O  c #260603",
"+  c #281403",
"@  c #371903",
"#  c #300E0D",
"$  c #1B2805",
"%  c #312C0A",
"&  c #31142E",
"*  c #342B30",
"=  c #150E32",
"-  c #491509",
";  c #4E320C",
":  c #69340F",
">  c #4E1330",
",  c #4F372D",
"<  c #732E33",
"1  c #6F1217",
"2  c #36450A",
"3  c #39482B",
"4  c #524D09",
"5  c #6B520B",
"6  c #746E12",
"7  c #52502F",
"8  c #6C4F31",
"9  c #716F32",
"0  c #556A21",
"q  c #3B184B",
"w  c #312B4E",
"e  c #2F3973",
"r  c #0B226A",
"t  c #4F2C51",
"y  c #4D3271",
"u  c #692E54",
"i  c #3C4844",
"p  c #514E4E",
"a  c #6C504D",
"s  c #586851",
"d  c #6A7450",
"f  c #4B4B73",
"g  c #70536B",
"h  c #747071",
"j  c #AA3514",
"k  c #8A3133",
"l  c #972917",
"z  c #936F14",
"x  c #AF720F",
"c  c #8A582E",
"v  c #B44D31",
"b  c #916F30",
"n  c #AA7133",
"m  c #9C550D",
"M  c #D05506",
"N  c #CE7410",
"B  c #D57230",
"V  c #E2671B",
"C  c #873451",
"Z  c #923569",
"A  c #AD4A50",
"S  c #907151",
"D  c #A97A57",
"F  c #8B7073",
"G  c #AB7567",
"H  c #904B5E",
"J  c #CC5B4A",
"K  c #76882B",
"L  c #748B4F",
"P  c #778870",
"I  c #948915",
"U  c #928E2E",
"Y  c #AF8F31",
"T  c #B2A737",
"R  c #A3A728",
"E  c #D48B10",
"W  c #E99212",
"Q  c #CF942F",
"!  c #ED942F",
"~  c #D3AB33",
"^  c #F0AE35",
"/  c #E4A719",
"(  c #B0C62A",
")  c #F6C738",
"_  c #C6D332",
"`  c #8F914F",
"'  c #B3904F",
"]  c #8FA854",
"[  c #B0B04D",
"{  c #8F8F72",
"}  c #AF926E",
"|  c #94A971",
" . c #A7B575",
".. c #CB964D",
"X. c #EE944E",
"o. c #DAB849",
"O. c #D9B756",
"+. c #CCAB51",
"@. c #FBA847",
"#. c #E6B648",
"$. c #FAB949",
"%. c #E9B959",
"&. c #FAB958",
"*. c #EAAA4E",
"=. c #CB9772",
"-. c #D6B170",
";. c #E8B865",
":. c #FCB865",
">. c #E3B877",
",. c #F2B071",
"<. c #ED926F",
"1. c #B9C953",
"2. c #AEC974",
"3. c #D9C557",
"4. c #FAC747",
"5. c #E8C659",
"6. c #FBC758",
"7. c #FCD658",
"8. c #EBCC4E",
"9. c #D6CA6B",
"0. c #EAC969",
"q. c #F9C867",
"w. c #FBD868",
"e. c #F9C976",
"r. c #FBD777",
"t. c #E9D173",
"y. c #FCE579",
"u. c #F6E96F",
"i. c #EDE561",
"p. c #13388D",
"a. c #243698",
"s. c #4C3987",
"d. c #1B4696",
"f. c #2E4891",
"g. c #1552B3",
"h. c #2E55AE",
"j. c #2F6BB9",
"k. c #1F67A2",
"l. c #4B5493",
"z. c #6A528C",
"x. c #536495",
"c. c #746E96",
"v. c #4A57AA",
"b. c #4D6BB1",
"n. c #6A70AE",
"m. c #7A5EB5",
"M. c #2F5BCA",
"N. c #1B69D0",
"B. c #2868C9",
"V. c #3668C8",
"C. c #2769D6",
"Z. c #2C75D8",
"A. c #3777D9",
"S. c #3471CC",
"D. c #3471E6",
"F. c #195CCE",
"G. c #4777C8",
"H. c #457CD8",
"J. c #4D71CE",
"K. c #6C7CC7",
"L. c #4B77EF",
"P. c #8F5585",
"I. c #8C6E90",
"U. c #8D6DA7",
"Y. c #AC5C94",
"T. c #D36693",
"R. c #6F89B3",
"E. c #6E8895",
"W. c #3A86D9",
"Q. c #3087D1",
"!. c #3C89E6",
"~. c #4788DB",
"^. c #558CD5",
"/. c #6A8BD1",
"(. c #6BA6DB",
"). c #4688E4",
"_. c #5589E6",
"`. c #4797E8",
"'. c #5898E8",
"]. c #5493F3",
"[. c #6698E7",
"{. c #6996F1",
"}. c #57A4F1",
"|. c #67A6E7",
" X c #75A7E7",
".X c #68A7F7",
"XX c #77ABF6",
"oX c #7BB7F9",
"OX c #73B4EA",
"+X c #8C908F",
"@X c #99A992",
"#X c #AFAC90",
"$X c #948FAD",
"%X c #AB9DA7",
"&X c #B2AFAC",
"*X c #A99B98",
"=X c #C7A688",
"-X c #D6B698",
";X c #CEB08F",
":X c #E7B98D",
">X c #D8BBA5",
",X c #C9B5B0",
"<X c #DCA99B",
"1X c #B4C98F",
"2X c #BDC4B1",
"3X c #CDCD95",
"4X c #E9C789",
"5X c #FAC987",
"6X c #FAD986",
"7X c #FBD798",
"8X c #ECCE92",
"9X c #FCE585",
"0X c #FEE497",
"qX c #FEF796",
"wX c #F8F187",
"eX c #C7C8B8",
"rX c #D3CEAF",
"tX c #E8C8AA",
"yX c #F8D9B7",
"uX c #ECD1B2",
"iX c #D7E8AF",
"pX c #FDEFAD",
"aX c #CFE697",
"sX c #93ACCF",
"dX c #ABB7D1",
"fX c #88B9F9",
"gX c #8FB3F1",
"hX c #AEB2F2",
"jX c #899BE7",
"kX c #C6B7CB",
"lX c #B8C6CF",
"zX c #91CBFA",
"xX c #A6C9FB",
"cX c #ADCFF4",
"vX c #B3DAF4",
"bX c #D8D8CA",
"nX c #CFCFCB",
"mX c #E3DCD6",
"MX c #ECD6CA",
"NX c #DCE4D6",
"BX c #DAE5CD",
"VX c #E5E5D8",
"CX c #F0EECF",
"ZX c #C7D9FA",
"AX c #D9E8EA",
"SX c #E8EBE8",
"DX c #EBF4EB",
"FX c #F3FCEC",
"GX c #EDF4F5",
"HX c #F5FCF4",
"JX c #F9FEF5",
"KX c #F5FCFC",
"LX c #F9FEFD",
"PX c #F3F5F7",
"IX c #EBEEEF",
"UX c #E2D1E1",
/* pixels */
"^.oXzXfX X(. X[.[.XXfXfXfXjXgXxXcXvXZXvXZXZXvXzX.Xg.M.M.h.J.M.B.F.C.M.h.J.M.M.C.C.B.j.j.j.j.C.L.{.jX{.{.XX{.'.XX.X.X].'._.{.{.{.",
"G.[.fXfXoX[.^.G.'.{.{.{.[.[.[.XXOXgXgXgXgXgXOXXX'.M.V.M.M.M.M.B.C.g.V.G.b.h.V.B.B.B.V.j.h.h.M.h.b.K.K.K././././././.^._._.H.~._.",
"J.H.H._.~.W.W.!.).).).L.A.Z.Q.W.'.[.^.^.'.[.~.S.B.M.M.M.D.C.D.Z.N.A.V.J.ZXZXgX|.Q.j.j.b.v.v.x.f w * * & q t t q y s.l.b.G.G.Q.W.",
"V.V.V.V.S.Z.Z.Z.C.C.C.C.S.B.S.S.J.^.G.G.~.).D.C.g.V.M.M.L.D.).]..X.XfXxXZXhXxXZXxXxXZXhXz.q q & # . # u g P.U.U.s.s.f.h.h.j.B.Q.",
"g.F.B.B.S.S.C.B.B.B.B.j.h.h.v.l.f x.x.b.V.D.D.D.Z.W.j.S.{.{.fXfX^.(.(.R.gXhXhXhXhXI.H C 1 1 C Z C > t I.U.n.b.j.S.A.Z.C.C.C.C.F.",
"g.N.B.B.B.B.V.B.h.h.h.f.e e q q & w w e f.v.v.h.b.[. X^.b.f.l.n.l.n.f w R.jXn.s.z.g C C k Z Y.U.P.t y c.n.v.j.B.N.N.C.C.D.D.D.C.",
"g.F.B.Z.Z.B.g.d.p.a.y y u u > # > t > > < < < u u y l.f.x.f y u > > u g p w b./.K.n.z.z.n././.b.K.l.l.b.b.V.S.A.D.C.N.C.C.N.B.A.",
"M.F.B.C.C.g.d.p.v.v.m.U.U.P.u > g P.P.H < k k H P.z.l.f.f y g P.Z Z C u F +XR.b.G.J.b.J.J.S.j.j.j.b.G.V.V.S.A.C.D.C.A.{.}.S.k.j.",
"F.N.Z.C.Z.D.D.Z.S.V.j.v.x.c.f t g $Xz.U.$Xz.s.v.J.h.G.^.n.U.Y.Y.Y.Z Z H I.E.R.Q.S.C.D.D.S.S.j.Q.S.j.S.V.B.A.S.A.H.H.{.xXvXxX/.x.",
"C.N.C.Z.C.C.C.Z.Z.Z.B.j.j.J.n.x.$XhXjXjXgXK.J.J.V.A.j.b.$XP.C T.Y.T.A k < p x.b.b.V.A.V.G.G.S.j.H.H.H.p.g.H.B.H.~.[.[. XxXZXcXR.",
"M.h.B.A.A.Z.C.C.C.D.D.D.A._.]._.[.gXgXzXzXXX{.^.^.b.n.c.u < A l v <.l l v < > I.z.c.U.z.x.b.J.H.B.j.H.g.g.B.A._.{.{.[. XfXxXcXxX",
"h.G.G.S.j.S.A.A.C.D.D.D.D.D.D.A.~..XoXzXzXoXXX/.x.c.g u C A J v m B m B j j A > u H =XI.$Xn.^._.G._.V.d.g.p.S.S.{.'.[.XXoX XfXxX",
"k.^.|.^.j.j.j.S.A.Z.C.C.Z.D.D.Z.C.H.~.'.]._.J.l.c.*XC 1 A l j B B E m X.j l l l 1 k <X,XUXvXxXzXb.vX/.p.[.G.j.k.'.[.|. XXXfXfXfX",
"|.OXzXzXzXzXOXOXoX}.!.Z.A.!.!.!.A.).).H.A.H.G.b.c.g C k v l v B Q 6XB M v j j l v A G F &XlXzX(.r [./.p.^.^.d.p./.XXfXfXXXfXfXXX",
"oX|.'.|.oXzXzXzXzXoX.X`.W.A.Z.Z.A.W.A.A.W.W.Q.W.G.n.U.u k v B B 5X0XX.! B M j k > & * = e /.[.H.h.J._.h.p.d.p.p.b.^. XoX.X^.'.|.",
"~.'.'.'.'.|.'.^.~.~.~.~.~.W.W.~.W.).).).`.W.Q.Q.).G.K.t < v B M :.pX:.B V j 1 < = f x.f.d._._.V.d.[.^.h.p.p.a.p.r p.h.H._.~.~.~.",
"Q.Q.W.~.~.~.~.~.W.!.!.`.`.`.).~.~.).).).`.}.`.`.]._.jXn.F =.B *.y.qX6XX.B v 1 & l./.^.}.}.`.).p.f.h.p.h.p.p.p.h.a.a._.].~.'..X!.",
"!.`.}.}.'.'.'.'.}.`.`.`.`.'.[.[.'.|.|.'.}.}.}.}._. X/.$X;X=.Q w.qXt.6Xr.X.X.A # x./.^.`.!.`.~.d.f.p.a.d.r d.p.J.M.g.L._.~.~.`.}.",
"'.}..XOX|.(.(.|.OX|.|.|.OXOX X(./. X X XOXXXXXfXgXdX&X;X' Y #.7.y.wXqXw.! Q ..D h sXgX(..X.XK.f.a.r d.h.a.h.p.a.h.a.d.r k.|.|.^.",
"[. XoXoXOXOXOXOXfXfXfXxXxXxXxXxXxXcXcXcXzXsXsXsXkXrX-.+.o.8.7.u.wXwXt.r.6.~ ..4X;XeXlXsXgXgXn.l.a.r v.l.f.l.f.e e r e r ^.zXOXOX",
"sXsXgXzXzXzXzXfXgXhXhXhXdXdXdXdXlXlXnXnXBXiX8X8Xt.~ ~ 8.w.y.y.y.w.y.9X6Xt.t.t.9.t.t.>.=XnXsXf w y = i p f h c.w * * w = b.gXgXgX",
"dXdXzXzXzXzXzXhXdXdXnXnXnXrXrXrXrXrXrX3X4X-.~ ~ ) / 4.w.5.r.0X6X0.O.[ ` t.qX+.z 9Xr.:.>.tX&XF a h a 9 `  .3XuX{ ` } F p f R.cXcX",
"dXcXxXxXxXxXcXlXNXuX8Xt.0.o.o.o.9.9.;.%.*.! E W W w.5.o.9Xt.+.9.t.U 4 4 I T I +.7XpX5X5X4X4X0Xt.t.6Xw.3.~ Y O.O.%.t.7XuX{ p %XnX",
"dXcXcXvXcXvXnXBXpX8X3.~ ~ 4.7.y.y.r.q.&.@.! ! ! ^ 6.x T 9XT 5 4 Y 4 9 U I O.Y 5 c -.5X0X7X6Xy.8.8.7.7.7.7.4.4.7.^ ~ O.0X8X} CXnX",
"nXlXSXVXVXrXpXpX4X[ O.9Xq.:.5Xn c c X.e.@.^ &.6.$.#.3.o.[ T U U t.9.U 6 [ ' ' ; : ; n -.6X6X8.7.%.:.5X;.%.*.Q 6.r.e.q.e.4X7XCXCX",
"eXVX#X-.>...r.y.o.5.I O.5XpX=...G 1 1 X.r.:.q.&.*.#.5.u.wX9.1.U K 4 4 6 U 5 c c @ ; : ' ' -.5.#.e.' b >.7X;.*.6.e.r.r.r.r.6X-.3X",
"yX7XY Q ^ ^ ) / ~ 3.+.5 ' 0X0X-.<.l - n 0X:.q.q.%.y.5.8.R R I R R [ [ T T Y ' 4 + - - D 9 S t.6XO.6Xb S >.t.0.q.+.q.5.o.u.y.t.9.",
"7X-.Q ! W ) W x ~ #.y.U 5 +.u.+.m l : m ;...O.Q r.r.y.R T ( ( 1.1.[ K 4 6 Y +.8 . O # a 8 ; } 0Xt.0X4X5 b 8X4 : ....Q ~ u.8.u.y.",
":X,.e.&.! 6.N E *.*.qX6X+.U I R z Y 0...Y [ y.3.z ' +.b [ 9.1.R U K K 6 z Y ' ; X + + , p ; c :X6X6X0X;X9 ; @ @ c +...o.~ Y y.w.",
":.e.&.&.&.r.! ! @.&.r.9Xt.y.1.t.9Xt.+.Y t.wX3.Y 5 ' ; 7 4 ` [ R [ [ ] 9 z Y b @ . + . , 7 % - =.e.+.4XpX-XS 8 , S 7X-.e.Y Q y.w.",
"4.^ Q *.q.r.@.N $.@.6.Q r.wXaX3XCX .4 4 T 3.9.0XFXMXF , % ; 9 6 6 0 4 2 ; 4 ; + + + + 8 8 % - ..0Xr.6X;X>X%X,X,X>XyX5XpXe.*.$.7.",
"4.E ~ 6.Q &.r.! @.^ E 6.r.+.4 L P $ $ U T T 9XyXbXkXkXg & # + 4 4 0 0 2 % % % + O O O : 8 @ ; 5 +.; >.D *XMXH F S -.7X:.e.&.@.! ",
"q.N ! ! x &.:.:.@.N E $.^ 5.Y ; % $ 7 b Y T 8XrXnXdX+Xc.t = X X X * 3 % % % % + O O # - ; 4 8 } ` b 7XS =.F a > - ,.:.! $.@.! @.",
"! ! ! E @.^ ! e.:.! *.$.Q #.5.U 0 2 4 b T r.0XrX2XdXc.p *   X X + + o o $ $ $ # O O : =.>.>.8X` -.pX8X-.S } a < :X:.E W ! ! V ! ",
"! ^ @.E ^ *.6X6X;.Y O.0.O.0.y.[ 4 6 I I Y 0.9.rX2X$X+Xp o % [ 9.Y b 5 $ o $ * , # : b Y 0Xe.n ' +.b ' } 9 9 8 4Xq.4./ W M M V W ",
"! E w.6.$.~ w.5.: O O + % 4 U [ R R ~ ~ Y O.7XrXeX&X+Xd 4 9.u.R Y Y Y 4 $ 7 * * , c z x *.Q ..;.-.b 8 } #X4 } qX~ / ^ 6.! M M ! ",
"x 6.wX~ ~ ^ ) $.*.z ; @ 8 9 9 0 0 @ z e.-.' pX8X3X2X#X3Xi.i.( _ T z 6 % * h f * , 8 m m Q *.e.=.G { h &XI.  ; ;.~ E E &.q.@.M V ",
"z %.y.&.4.^ E ^ ^ *.n ; % % 2 2 7 4 b ' D ; ;XCXCXCXBX .1._ ( R I 5 9 d +XdX$Xh , 5 m x &.e.n D a u g dXt , S ;.^ E E E q.q.N M ",
"..r.e.Q E E E W ^ &.X.c +       X 7 ; - 8 - F CXbXeXeX#X[ [ 1.[ U 9 L @X&X$X$XF 8 c m q.9X;.' S g * %Xh # F D *.$.E / / 7.$.^ 4.",
"%.r.#.Q Q N ! 4.! ^ *...; O X X   . . . O O F mX&X&X+XF d ` 0 0 2 7 L @X@X+Xh 7 : c Y w.q.t.b ; , * + ; } } =.,.! E ) / ) ^ 4.7.",
"6.w.6.#.#.E ! 6.! ^ ! ..n @ . . X o . . .   t %X+X+Xh a 7 , 2 7 d P { h h p p , 8 b ..%.5.+.z ' 4 9 ' t.pX>.' ,.*.! 4.4.7.4.w.u.",
"6.w.w.w.y.6.&.&.*.$.^ ^ %.z @ . o     #       * h p 7 7 S { 7 7 7 s s p p , , 8 8 b n ~ q.o.Y n @ 9.w.5.+.5X7X..q.6.4.4.w.6.5.9.",
"o.w.y.y.wXy.r.q.6.^ / ^ 6.;.8 .   $     ; d { #X3X9.8X` 9 S ; 7 8 , % % % , a 8 8 : O z q.$.$.^ Q 6.~ 8.%.;.0XY @ Q w.^ 6.w.w.3.",
"o.w.w.O.0.w.y.w.7.^ ) ) 8.e.b 8 % X . ; pXpXpXpXqX3.0.U 4 ;   , tX=X=X;X9 ; @ @ O @ O x 6.$.$.$.4.4.4.7.y.0.9XU 4 ~ y.6.#.o.o.8.",
"0.t.3.T O.0.w.^ 7.4.7.4.7.+.; 9.6X6 6 z t.t.wXi.i.8.5.z : - # # G 5X7X0X9X+.; . : Y Y $.^ 4.^ 4.4.^ 7.7.wXy.i.i.8.7.w.6.&.6.8.~ ",
"%.q.0.O.0.t.w.o.~ ~ 7.8.w.e.Y qX5.5.5.*.Q o.o.~ o.u.r.n - O . . O c +.0.r.9X9.+.' t.q.6.Q #.~ #.7.4.4.~ 5.qX3.w.w.7.3.O.*.:.%.Q ",
"! ^ q.e.r.r.wXu.u.w.9Xq.q.r.q.#.~ #.Q X.,.,...;.6.#.*.*.n : @ O - O 6 9.9.+.0.0.0.r.r.9X6X6X>.+.q.8.~ i.0.O.Y %.e.e.>.:X=.G D =.",
"! Q *.;.r.9XqX9Xy.y.0.;.q.%.6.#.&.r.e.,.5X:X5X5Xe.e.5X5X7X7XS . . + } pXqX6X0Xt.O.q.r.0.6X4X:X' ;.6X3.O.9.>.>.n n >.:X:X<X<XG G ",
"O.;.0.0.0.r.r.r.t.9Xe.0.e.+.e.5X7XyX=.=.:X=.;X:X' 4X7X4X7X:Xc @ . 8 pX0X7X8X7Xe.#.~ %.e.>.4X7X4X-.' -.>.=.=.=.' S ' =.=X=.=.=.=.",
">.:Xt.>.0.t.6X6X7X0X4X7XpXpXpX8XCX=X} yXtX;XtX;X=.-XtXtX-XD 8 8 # 8 -X4X8X:X>.>.+.+.;.e.:X4X5X>.;X} } -XtX-X=X=X=.=XtXyXtX:X:X:X",
"-X>X>X-XtXuXyXyXuX;X=X>XtXtXuXuXtX;X-XtXtXyXyX-XtXtXyXyX=X, O @ + . # , S } } -.:X-.:X4X;X;X-X=X=X=X=X-XtXuXtX>X;X=X=X-X-X-X-X;X",
",XeXMXMXMXMXMXMXrX#XuXMXuX>XrXrX;X3XuXuXuXuXrX>XtXtX=X{ a * # * * * * p a S S =XyXuXyXMXyXyXMXuX;X>X>X;X>XuXMXtXuX>X-X=X;XtXuX>X",
"bXmXmXVXVXmXbXeXnXnXmXrX#XrXrX#X3X>XuXMXMXCXrX#X,X,X+Xg a g h h g h h I.F F d { #X;XrXMXMXMXmXmXCXeX&XeXrXbXmXnXeXeXnX,X&X,XMXMX",
"mXmXmXmXVXmXnXnXbXmXeXeXd #X3X3XrXrXrXrXBXbX@Xs &X&X&X&X%X%X%X%X&X&X*X%X%X,X%X%X,X,X,XnXbXbXmXVXSXbXbXVXbXVXIXmXVXmXSXSXmXbXmXmX",
"BXBXBXBXbXbXbXBXBXVXBXCX1X .3X2.`  . .1X3X| | #X2X&X2XeX2X2XnXnX&XnXnXnX&X,XnX,XUXUXnXnXnXnXnXNXbXSXDXVXVXSXDXSXGXSXSXIXIXSXmXbX",
"VXVXVXVXVXBXVXVXVXVXCXiXCX2.aX` ] iXCXiXd 9 aXiXiXrXrXeXeXeXeX2XiXrXeXeXeXrXBXnXnXnXbXBXBXBXbXbXNXNXnXbXDXAXnXIXAXAXSXNXNXIXPXSX",
"SXSXSXSXSXIXIXGXSXHXVXCXCX| L  .] | 2.aX1XaXiX2. .L iXaX3X| { 3X2.] ] 1X2.] aX .@X1X1X .2.1X] 1XbX{ @XbXDXAXSXGXGXPXKXPXGXIXGXGX",
"SXSXIXIXGXGXGXPXIXLXHXVXCXiX| 9 9 0 L L K ] aX1X] ] iX1X .L L pX] K ] iX] 0 2.L | #XL 0 ] 2.L 1X{ &XNXNXFXGXDXSXGXPXKXPXGXGXGXPX",
"SXIXGXPXPXPXPXKXKXPXLXFXFXCXiXCXrX@XL d | 7 0 | L d 1X| | d L iX] L L d { 1X| d | BXBX1X .| s P h &XJXFXFXHXHXPXPXHXKXHXPXPXPXHX",
"IXIXPXKXLXKXKXKXKXPXLXLXJX@Xs rXFXHXHX@Xs $ s s 3 d FXBXd 3 +XFXL $ @XeX3 d P s d P P @X@Xs 3 nXh s 2XJXFXNXLXLXHXHXJXJXHXHXHXHX",
"SXDXHXJXJXJXHXKXLXLXLXDXJX#X3 s +X$X$Xp p E.&Xs i h NXlXs i E.&Xp p @XFXP i +XlXP d @XNX+Xi s 2XbX* * @XHXLXLXAXHXHXLXHXHXHXJXJX",
"IXDXHXHXHXJXJXHXLXPXLXKXJXJXNXnX&XdX&XlXIXKXKXKXKXKXKXIXLXLXKXSXKXKXVXFXDXAXKXGXJXHXHXKXPXKXSXHXHX@X+X@XAXHXKXLXKXHXKXLXLXLXJXJX",
"IXGXPXHXHXHXHXKXPXPXLXLXPXLXLXLXKXHXHXHXHXDXLXDXDXJXJXDXJXGXHXLXKXIXJXHXHXKXGXKXFXDXDXLXPXKXLXHXLXHXLXDXKXKXKXKXKXKXKXKXHXLXJXJX",
"GXGXGXPXHXHXKXKXKXLXPXPXLXKXKXKXSXJXFXNXJXFXFXJXJXFXFXJXJXDXLXDXLXLXHXDXHXGXLXHXDXJXHXPXLXLXPXLXKXIXKXKXKXKXKXKXKXKXKXHXLXLXLXJX"
};
