/* XPM */
static char *_89cc88971544527f65846b1d255a5443Ek4epiqc4toqXhj[] = {
/* columns rows colors chars-per-pixel */
"64 64 256 2 ",
"   c #010303",
".  c #020B03",
"X  c #0C0C04",
"o  c #01060A",
"O  c #020A0C",
"+  c #0B0706",
"@  c #180C05",
"#  c #031303",
"$  c #091608",
"%  c #1B1402",
"&  c #1C1B02",
"*  c #171707",
"=  c #030D13",
"-  c #020E1A",
";  c #090A15",
":  c #021215",
">  c #021B14",
",  c #01141B",
"<  c #011B1C",
"1  c #0B1618",
"2  c #161819",
"3  c #130E14",
"4  c #241B0B",
"5  c #2C1B0C",
"6  c #261706",
"7  c #331E0C",
"8  c #341B08",
"9  c #2B1C12",
"0  c #271914",
"q  c #321D11",
"w  c #280B02",
"e  c #062605",
"r  c #1A2504",
"t  c #013706",
"y  c #042319",
"u  c #16271C",
"i  c #143513",
"p  c #282407",
"a  c #382609",
"s  c #2A3505",
"d  c #383604",
"f  c #2A2616",
"g  c #342314",
"h  c #3B2513",
"j  c #3D2914",
"k  c #3A2619",
"l  c #3D2A1B",
"z  c #362719",
"x  c #253817",
"c  c #363414",
"v  c #011522",
"b  c #021B24",
"n  c #021C2B",
"m  c #0A1A26",
"M  c #151D27",
"N  c #041C33",
"B  c #070C20",
"V  c #032224",
"C  c #02222C",
"Z  c #082828",
"A  c #182627",
"S  c #04342C",
"D  c #022334",
"F  c #02243A",
"G  c #052A38",
"H  c #162932",
"J  c #043637",
"K  c #173632",
"L  c #282925",
"P  c #3C2D23",
"I  c #30342F",
"U  c #4A150B",
"Y  c #442909",
"T  c #453906",
"R  c #432B14",
"E  c #432C1A",
"W  c #492C19",
"Q  c #4B331C",
"!  c #49341A",
"~  c #53391B",
"^  c #572F09",
"/  c #6C3409",
"(  c #442E21",
")  c #4E3922",
"_  c #4C3B2C",
"`  c #483527",
"'  c #543B24",
"]  c #553B28",
"[  c #473C34",
"{  c #553C32",
"}  c #6D1C0E",
"|  c #064806",
" . c #035705",
".. c #0D5016",
"X. c #3C4405",
"o. c #324816",
"O. c #04443A",
"+. c #104A39",
"@. c #32472F",
"#. c #216D22",
"$. c #4C4402",
"%. c #4C4B02",
"&. c #474607",
"*. c #544C02",
"=. c #554907",
"-. c #555302",
";. c #5B5403",
":. c #5C5B01",
">. c #59560A",
",. c #584715",
"<. c #595415",
"1. c #4B5307",
"2. c #635C03",
"3. c #665A07",
"4. c #675814",
"5. c #684B10",
"6. c #576507",
"7. c #656301",
"8. c #6B6403",
"9. c #6C6A02",
"0. c #6A660A",
"q. c #736C02",
"w. c #766908",
"e. c #747302",
"r. c #7B7402",
"t. c #7D7B02",
"y. c #78750A",
"u. c #786A15",
"i. c #7A7515",
"p. c #6A6D12",
"a. c #5B4328",
"s. c #4A443B",
"d. c #544335",
"f. c #59493A",
"g. c #4C572C",
"h. c #634937",
"j. c #6A512B",
"k. c #566B2B",
"l. c #776F2E",
"z. c #022C44",
"x. c #022C4A",
"c. c #032742",
"v. c #02324C",
"b. c #033546",
"n. c #023353",
"m. c #023B54",
"M. c #013A5A",
"N. c #053758",
"B. c #173852",
"V. c #373C47",
"C. c #023D63",
"Z. c #0E1E42",
"A. c #02465A",
"S. c #0A534D",
"D. c #32474C",
"F. c #056757",
"G. c #036F55",
"H. c #024467",
"J. c #004E79",
"K. c #047968",
"L. c #076E69",
"P. c #346E54",
"I. c #584A44",
"U. c #5B5346",
"Y. c #525359",
"T. c #634E42",
"R. c #645344",
"E. c #6A5445",
"W. c #6A594B",
"Q. c #745A47",
"!. c #6C5D51",
"~. c #725E55",
"^. c #4B734A",
"/. c #776558",
"(. c #716D50",
"). c #7C6B62",
"_. c #7E7266",
"`. c #637D64",
"'. c #5D5B64",
"]. c #4D3A40",
"[. c #883C21",
"{. c #847C04",
"}. c #867907",
"|. c #837D13",
" X c #857A1A",
".X c #8D740D",
"XX c #AF5738",
"oX c #8A722E",
"OX c #9A642D",
"+X c #826B5A",
"@X c #856E4D",
"#X c #836E62",
"$X c #887667",
"%X c #917D6C",
"&X c #8C7D71",
"*X c #805141",
"=X c #DF7156",
"-X c #7D850C",
";X c #688630",
":X c #018A71",
">X c #578A51",
",X c #6E8653",
"<X c #7A9666",
"1X c #848202",
"2X c #8B8303",
"3X c #888808",
"4X c #948906",
"5X c #8D9205",
"6X c #999605",
"7X c #8A8515",
"8X c #948B16",
"9X c #999418",
"0X c #A39B01",
"qX c #A59908",
"wX c #A69917",
"eX c #AF930A",
"rX c #A8A505",
"tX c #B2A914",
"yX c #8B8823",
"uX c #968A24",
"iX c #9B9528",
"pX c #989034",
"aX c #A49827",
"sX c #A49A38",
"dX c #B1922D",
"fX c #A9A428",
"gX c #B6A829",
"hX c #B7AB33",
"jX c #B3AA39",
"kX c #96A209",
"lX c #C0AC14",
"zX c #C5B031",
"xX c #8E8E56",
"cX c #AD9548",
"vX c #ACA548",
"bX c #998675",
"nX c #938D6E",
"mX c #A28B79",
"MX c #8FA976",
"NX c #B3A96D",
"BX c #81A251",
"VX c #C8BA47",
"CX c #C8AD4D",
"ZX c #CD956B",
"AX c #E1A46F",
"SX c #D9C359",
"DX c #DCCA68",
"FX c #079C96",
"GX c #788C80",
"HX c #A79484",
"JX c #AFB491",
"KX c #A0B590",
"LX c #EFB68D",
"PX c #D6AA98",
"IX c #E7D2A2",
"UX c #EDEED9",
/* pixels */
"# # # e t # u  . .# e | | e o.4.PXMX#.#.>X@.t > : : , , - - , : B x @.: O X + @ X .   O = ; O O o . . O o . . .                 ",
". $ # $ t . #  ...> i  . .| #.d xXIX>X^.>X@.t > : , , , b b , : O @.I = - +   * +   . = = ; = O o o o o O .   .                 ",
"  # y . . . e  .t   e t |  . .r ;XKX^.GXUXg.t V v m m b < : : > > A 3 - B L 4 X   . O : , = = : O O o O O o o .                 ",
"  . #     $ ..#.... # r e | #.g.(.k.o.<X`.i t t m , v C b < b b n m - , m I * ; + O : : , , , - ; O O = = = O o       .         ",
"  . . . $ e | #.t . # x e t ;XnX,X,XnXBXi < t t < > b V < , m n v , b n < y = 3 ; 1 , , , , : , = = = - = = = O . . . .         ",
". .   # # e t ..:   r r | | #.xX(.KXJXk.k.> t | V J Z > $ & r f I i < m , , b 2 1 , , , , v , , , , : : : : = O . . .           ",
".   . e e y e # o r g.t | k.,XNX_.MX(.o.S , e  .G G < $ s %.%.-.l.k.x $ m b , 2 b b b v v v v < , , , , , : = O                 ",
". o $ t e y   + * 1.l.e ..MXxXJXIX,Xc ^.Z 1 y ..u > . & &.:.:.:.;.>.<.o.1 n b b b b b b b , , < , , , , : = O O                 ",
".   . # # # $ . . X.;Xe r JXk.nXUX^.x <X+.: V V 1 $ X X 6 >.7.7.3.:.>.-.X.< b m N n b < < < < b , , , , - O o     . o .         ",
". .   . . . # >   s k.i 4 nX@XJXKX>X@.MXK B n m X * X & a T 2.9.8.7.2.3.1.x b m V b b b b n n n b , , , = O o o . o o o         ",
"  .     .   > y X r k.o.f.NXj.g.g.>X@.^.K n V 3 X * % p =.2.y.r.q.9.8.3.:.1.y n V b b n n n m n b , , : O o o O o o o o .       ",
"X # + . +   Z S . r o.r z NX(.o.(.KXD.> b C Z X * * % 6 %.e.r.r.r.e.9.0.8.7.x n C C n n n b b b b v , : O O O O o o o o .   o o ",
"& * $ # o = O.O.$ e c # . g.(.* o.P.y = C D > + p & % d :.t.r.|.r.e.e.e.9.7.X.C D C C C b b b b b b , = O O = O o o o o o o o o ",
"& * $ # . : O.J . @.s.O $ i s p p i . ; V D # * p c p >.y.y.y.1Xt.r.y.e.9.7.6.A D D D C n n n n b b v , = = = O o o O O O O O O ",
"# X X . . : y < . o.@.o * # $.T Y p . o : V r s %.<.$.0.y.|.7X1X3X}.r.y.p.8.7.s C D D D C Z u x b b v v , - O O O O O O = = = - ",
". $ + . O = O o o i u - 0 2 =.5.a % : = . * X.*.:.0.8.y.|.7X7X8X7X7X{.i.i.y.0.X.C D D D Z i s X.C b v m b - O . O O O = = : - : ",
"3 . . =   X . . . 1 > O @.x 5.w.d @ 6 . - d &.:.e.t.7X|.i. XyXyX7X|.i.l.i.y.p.&.Z Z.G D u d 6 $.A , b n v = . = = - : : : : : - ",
"r * . O O > , O : , : @ U.L T ,.6 % % & p X.<.7.0.y.}.7X9X7X7XuX|.7X7X X0.3.0.%.i D D V r a a 2.K m b m v = O - , , , , , , , : ",
"r s r ; v J V o S F.y 2 U.2 . % X 3 $ d T X.<.2.4.4.0.y.8XaX9X4X9XfX|.2.i.y.7.:.i b.D $ 4 p T w.K n n b v = O = , , , , , , , - ",
"s p 2 = Z +.< + b G.S A u : O o . m : p >.%.-.e.1X1X|.i.i.iXjXfXVXyXi.8X0X0X7X>.s y r p % a q.u.H n n b v - O : v b v v , , , , ",
"s d f , n Z y y 2 F.S.1 O : = > y m m $ &.-.9.3X5X5X5X5X1X9XhXhXgX8X3X6X0X0X6Xe.p X * r 1 p :.o.C N n C v - : , b b b b v v , , ",
"d c $ y O.J S.O.y S.S.> 1 > 1 S O.O G 1 d -.e.-X9X9X5X3X5X6X6X6X6X2X4X0X0X4X2X2Xp & 1 V G N Z z.D F C C n - , b n n b v v v , , ",
"p s & < J J O.O.1 H V 3 + X H O.O., C u -.-.9.{.4X9X8Xt.e.3X6X6X5X{.2X2X2X4X2X{.&.& Z b.G c.z.D D F C C N v b n n n b b v v , , ",
". # 1 : Z S S K S m 2 $ 1 $ N S.b.A C x 2.6.y.}.8XfXjXiXt.1X6X4X3Xr.{.6XqX6X1Xt.>.s S z.F G G H F c.C C F n C N n n n b v v , , ",
"3 > $ = Z J V M M A 2 2 3 Z S G O.S.M.c r.t.r.w.,.W j.wX6X5X6X0X{.{.6XrXgXaX5Xe.7.&.z.S x.F G G D F F G G F G c.F D N N n b v v ",
": > > > Z K Z A A A M 1 3 S S M L.:XL.,.r.5X8X>.@X8 W cXtX0XtXlX4X6X4Xu.~ ^  Xr.0.>.G J x.z.F G F z.x.z.v.z.z.z.z.z.F D D n n v ",
", > y < M H A H M 1 1 > y +.J M A.FXL.<.{.3XwXi.j.Y j.cXtXqXlXlXrX0XpX*XU *Xa.y.}.0.G v.c.G F x.z.z.m.n.N.v.v.b.v.v.z.z.F D n n ",
", , < < m H H H b = 1 S F.K.S.Z S.FXL.8.{.8XwXwX}. XuXtXwXrXrXrXkXrXlX[.U @X X3X8Xy.K v.v.J z.v.D m b.C.C.M.M.m.m.n.v.x.z.F D D ",
"- m m b V H H M 1 I S.G.:XK.K.L.K.FXP.2..XaXwXhXgXwXqXqXqX6X6X0XqXrXrX4X X8X8XaXyX}.c N v.b.b.Z ; + C H.C.H.H.A.M.M.n.v.z.c.F F ",
", m N C C Z M B D P.L.G.K.K.:X:XF.O.x r..X8XwXhXVXhXwX8X{.{..X2X4XqXtXfXaXaXaXwXuX.Xd . 1 G H 3 @ @ , H.H.H.H.H.C.M.m.n.x.z.c.F ",
"b b n D C b n G F S.K.F.L.K.K.S.$ & T e.r.2X9XfXhXaX8X}.}.qXgXgX2X8XwXhXCXgXgXvX9X X&.% % 0 0 @ @ @ + B.J.H.H.H.H.M.M.n.v.x.z.c.",
"< m n n b b J F.v.A.F.F.K.:XF.q 8 a ,.w.0.e.|.5X6X}.{.{.4XtXzXVXtXr.7XfXhXVXjXfX9X X>.T a g 6 & X * + c.J.H.A.H.A.M.M.n.v.x.z.z.",
"< b N n , D A.J z.m.A.L.F.+.* h j.,.*.8.9.,.d -.r.4.w.{.qXtXhXgXtX2X4XwXfXhXhXwXuX|.>.=.$.9 5 5 w * @ 2 S.H.C.A.C.m.v.n.n.v.x.x.",
", C D b b F G X 0 H K K L 9 8 a.l.&.$.9.2.*.7.8.8X7Xd 0.0XtXlXlXrX4X6Xr.7XwX9X8XuXi.-.;.;.h 5 5 4 9 * 4 I.D.H.H.C.M.m.n.n.v.b.x.",
"b b n b C z.G w f 9 9 6 5 5 h j.-.$.&.9.3.}.wX8XqXtX>.% e.rX0XeX6X;.a p.y.7.e.7X7Xp.*.:.2.T 8 f 4 9 4 z Q.U.D.C.H.M.M.M.n.v.b.x.",
"m , v D F M.b.% 5 9 9 5 g f c <.:.%.&.t.i.}.r.2XeXfXgX,.5 *.0.w.T T 3XrX9X3.%.7.i.3.%.7.9.=.8 7 8 4 q z (.Q.I.D.C.M.M.M.n.x.v.x.",
"b < n D c.H.m.@ 8 5 f f g 5 T 4.0.$.T 1X7X}.8.3.eXgXgXhX4.g 6 p 4.jXtXrXfXwXe.$.0.;.*.7.q.*.7 q 7 8 z 9 ~./.R.I.B.m.m.N.n.v.x.z.",
"1 , v C b.H.m.4 f 8 8 a g 8 $.8.9.=.T {.i.4X7X8 .X0XzXCXSXvX8XfXDXhXhXtXwX8X9X0.7.>.-.8.q.3.g g f 7 k 5 W./.!.R.V.B.m.n.n.n.x.z.",
"o ; - b G v.J 4 6 8 h R g p *.e.q.$.T |.i.2X4XW ^ 0XtXCXSXVXVXVXDXVXgXtX8X2X5X7Xy.3.>.8.q.3.h h z g 7 8 f.$X~.R.U.D.m.n.n.n.x.z.",
". O ; = = M D.R 8 7 h j 9 g <.r.e.%.d i.y.r.}.oX^ ^ .XdXSXVXVXCXDXzXtX0X{.3.3Xi.|.0.-.9.r.q.h j Y z 9 8 ] $X/.Q.Q.D.m.n.n.n.n.z.",
"= = O O + I /.f.5 a E R a k <.t.r.*.c e.r.9.|..X0 5.^ ^ .XCXCXCXhXwX5Xy.a 4.qXi.}.;.>.9.y.9.a h j g l g g +X+X/.!.I.V.N.N.v.v.v.",
"O o : = L I./.R.7 a g Y Y E 4.{.{.:.p 9.{.9.w..X8 W ZXcX/ / 5./ ^ ^ 5.a 5 yX5X-X3X;.;.9.r.9.Y h k 5 j k 5 !.$X/.!.W.D.b.M.N.v.x.",
"O = m 1 [ W.+X!.8 Y R R R E <.2X1X0.& :.{.8.:.4XOXW W OXIXAXcXZXj.@XE w ,.7X1Xt.t.;.:.e.t.q.W R k 5 g z 5 f.%X/.~.Q.d.B.m.N.B.D.",
"= v m L U.Q.$X!.8 Q Q R R E ,.2X3Xq.6 &.r.3.-.q.gXZX} } [.XXZXLXoXU U j.r.y.7X1Xe.*.7.e.t.e.R R z k q 5 q _ $X+X).!.h.V.B.D.Y.Y.",
"1 , 1 D.W.Q.%XW.a ' Q W W W ,.7X3Xt.f d q.0.-.:.}.cXZX=XXXXX[.} XX[.ZXuX7.p.y.e.9.*.q.r.1Xw.h j 5 l g 5 5 h #X#X).!.R.].V.Y.'.Y.",
"- O A I.W.+XbXQ.R ] ) Q W W ~ yX3X2XT p 8.0.-.>.e..XZXLXIXAXLXLXAXLX.Xr.:.p.e.3X:.-.e.t.1X4.h R 5 g q 5 5 5 /.#X+XE.R.].I I.Y.Y.",
"- o P R.!.#XbXQ.R a.a.' Q Q ~  X8X4X2.& *.8.*.*.:.{..XOXLXLXIXLXZXuX{.0.7.e.9.e.$.7.y.{.1X,.j E g 5 5 5 5 6 ~.#X+XQ.W.I.[ [ D.'.",
"v 3 _ E./.$XHXQ.W h.a.' ~ ] ) 4.9X4X1Xp d w.;.$.=.3.}.dXOXOXdXoX X|.p.7.0.7.9.1.T p.y.1X2X~ j j g g 7 5 q @ f.$X/.Q.W.I.{ ` P I.",
"v 2 I.R.).$XmX/.) h.h.a.' ) Q )  XuX6X&.p ;.2.=.,.$.:.i.uXaXpXoXp.3.8.0.:.6.7.d >.e.1X7X{.,.) E j R 6 5 5 % d.#X/.W.W.R.s.[ P z ",
", L U.!.#X%XmX#X) E.h.a.] ' h ) u.aX9X0.% &.7.>.*.%.%.&.$.3.3.*.-.;.*.-.:.:.%.X.p.t.1X8Xy.Y h j E E 5 5 4 @ _ +X/.E.R.R.s.s.[ P ",
", I R.~.#X%XmX&X) h.Q.h.a.] W Q j.iXuX8Xa p :.8.2.%.&.d T $.*.;.*.=.%.;.-.-.d :.y.3X{.8Xu.R k g k h 7 5 4 @ ` #XW.E.R.R.I.s.[ ` ",
"1 I R./._.%XbXbX) h.h.h.] ] a.W a. XiXuX0.% d q.u.0.:.%.%.%.*.$.*.*.-.;.;.&.%.y.{.8X7X9X4.R ( l g 7 7 5 4 @ ( +XE.E.R.R.U.s.[ ` ",
"1 [ R./._.%XbXHX) ] h.a.Q ' a.W E j.iXiX7Xs 4 2. X X}.y.0.:.;.>.2.:.7.3.>.d e.t.2X8X7X8Xa.R k l q 5 5 5 4 @ P /.R.E.E.T.U.f.[ ` ",
"2 [ T.~._.%XbXHX' Q h.' ! ' Q ' E )  XaXpX>.% d w.}.4XwXaX8X7X8X|.t.r.2.d 6.-X2X4XiX8Xu.) h h g z g g 0 4 @ P /.R.E.E.T.U.f.[ ` ",
"2 [ T.~._.%XbXHXh.R a.! R ' Q ] ) ) j.uXsXyXd & $.r.4X4XwXtXqX6X8X{.w.%.X.-Xt.8X7XiXiXj.E j E E z l h 9 0 @ P /.R.E.E.R.I.f.d._ ",
"2 [ R.~._.%XbXHXQ.R ' Q j ) a.' Q ' ] l.aXsX3.& 6 ,.w.}.}.4X4X4X2X}.:.s p.5X8X9XiX8X7Xa._ ) ! j g z h g 9 @ P W.R.E.E.R.f.f.d.[ ",
"2 [ U.!.#X%XbXmXbXh E Q E Q ! E Q W ] Q oXsXyXT & 4 T 3.;.3.8.8.:.<.p 1.kX9XiXsXiXpX4.a.( R ! j ( k 5 5 4 @ P W.R.E.W.R.f.f.d.[ ",
"2 [ U.!.).$X%XbXbXh.h j h Q h.) l ! ~ { ,.pXsXl.p % 6 a d d &.d d p d pXsXiXsXsXsXl.a.) E j Q l l g k g f @ ( E.R.R.E.R.f.d.d.[ ",
"A s.U.!.).$X%X%XmX/.8 j h ! h.' _ ~ ~ h.) j.sXsX>.6 4 4 & & r r r r yXvXsXaXpXiXpXa.T.{ ' Q l ` z k l 5 0 4 { f.h.h.R.h.f.d.d._ ",
"L s.U.!.).&XbXbXbX#Xg h R Q ] ] ' ! ! ' ] Q oXsXsX<.% X & r r r s -XiXvXsXaXsXpX4.a.` _ ' ' _ k l g q z 0 4 _ f.f.f.f.f.f.d.{ _ ",
"L s.U.!.).&XbXbXbXbX` 6 h ) ] ] R ( R ! Q ] j.oXjXsXu.-.%.<.<.l.pX9XiXvXcXiXaXl.] ' ] { ] ] ( ( k g h P 9 @ ` f.d.f.f.f.d.d.{ ` ",
"I s.R.!./.$XbXmXmXHXh.6 g l ) ! E ~ Q ( E ] a.h.oXpXsXaX6X9XuXfXwX3XiXvXvXsXxXW.{ Q a.f.` 8 j l z l l g 0 @ d.f.d.d.d.d._ _ _ ` ",
"I s.R.!./._.bXbXHXHX/.5 f g h h ) ! Q E ( ! ' ( { h.j.pX9X2X9X2X7X9XsXNXvXNX@X] d.] h.) j ( ( k ( k g 9 9 @ _ f._ _ _ _ _ _ _ ` ",
"I s.I.W./._.nXnXbXHX#X6 5 l z l ! ! j l ) Q a.Q ~ a.` j.vXiX7X5XiXvXNXPXPXPXE.) j ` ` ] Q ( z P z l g g 4 @ ` { _ _ ` ` ` _ _ ` "
};
